<svg id="visual" viewBox="0 0 900 600" width="900" height="600" xmlns="http://www.w3.org/2000/svg" xmlns:xlink="http://www.w3.org/1999/xlink" version="1.1"><g stroke-width="1" stroke-linejoin="bevel"><path d="M480 317L508 352L536 296Z" fill="#00357f" stroke="#00357f"></path><path d="M508 352L569 309L536 296Z" fill="#001f3c" stroke="#001f3c"></path><path d="M569 309L551 255L536 296Z" fill="#003da1" stroke="#003da1"></path><path d="M536 296L479 237L480 317Z" fill="#00306e" stroke="#00306e"></path><path d="M551 255L479 237L536 296Z" fill="#002b5d" stroke="#002b5d"></path><path d="M397 277L449 384L480 317Z" fill="#003da1" stroke="#003da1"></path><path d="M480 317L449 384L508 352Z" fill="#00182b" stroke="#00182b"></path><path d="M521 473L596 394L508 352Z" fill="#00182b" stroke="#00182b"></path><path d="M508 352L596 394L569 309Z" fill="#003990" stroke="#003990"></path><path d="M479 237L397 277L480 317Z" fill="#00357f" stroke="#00357f"></path><path d="M569 309L590 221L551 255Z" fill="#001f3c" stroke="#001f3c"></path><path d="M551 255L590 221L479 237Z" fill="#003da1" stroke="#003da1"></path><path d="M651 271L590 221L569 309Z" fill="#0941b1" stroke="#0941b1"></path><path d="M361 398L443 440L449 384Z" fill="#00306e" stroke="#00306e"></path><path d="M449 384L521 473L508 352Z" fill="#002b5d" stroke="#002b5d"></path><path d="M596 394L651 271L569 309Z" fill="#00182b" stroke="#00182b"></path><path d="M521 473L623 416L596 394Z" fill="#0941b1" stroke="#0941b1"></path><path d="M596 394L684 385L651 271Z" fill="#0941b1" stroke="#0941b1"></path><path d="M443 440L521 473L449 384Z" fill="#0941b1" stroke="#0941b1"></path><path d="M397 277L361 398L449 384Z" fill="#00306e" stroke="#00306e"></path><path d="M733 282L673 248L651 271Z" fill="#00182b" stroke="#00182b"></path><path d="M651 271L673 248L590 221Z" fill="#00101c" stroke="#00101c"></path><path d="M673 248L597 160L590 221Z" fill="#1b44c2" stroke="#1b44c2"></path><path d="M590 221L502 124L479 237Z" fill="#003da1" stroke="#003da1"></path><path d="M479 237L355 229L397 277Z" fill="#0941b1" stroke="#0941b1"></path><path d="M502 124L440 153L479 237Z" fill="#00357f" stroke="#00357f"></path><path d="M440 153L355 229L479 237Z" fill="#002b5d" stroke="#002b5d"></path><path d="M397 277L302 358L361 398Z" fill="#00254d" stroke="#00254d"></path><path d="M644 458L684 385L623 416Z" fill="#00357f" stroke="#00357f"></path><path d="M623 416L684 385L596 394Z" fill="#00357f" stroke="#00357f"></path><path d="M361 398L367 433L443 440Z" fill="#00306e" stroke="#00306e"></path><path d="M452 559L523 531L521 473Z" fill="#003990" stroke="#003990"></path><path d="M565 507L644 458L623 416Z" fill="#003da1" stroke="#003da1"></path><path d="M523 531L565 507L521 473Z" fill="#00254d" stroke="#00254d"></path><path d="M521 473L565 507L623 416Z" fill="#0941b1" stroke="#0941b1"></path><path d="M597 160L502 124L590 221Z" fill="#003990" stroke="#003990"></path><path d="M372 165L323 235L355 229Z" fill="#002b5d" stroke="#002b5d"></path><path d="M355 229L323 235L397 277Z" fill="#1b44c2" stroke="#1b44c2"></path><path d="M361 398L275 448L367 433Z" fill="#0941b1" stroke="#0941b1"></path><path d="M407 75L372 165L440 153Z" fill="#00101c" stroke="#00101c"></path><path d="M440 153L372 165L355 229Z" fill="#0941b1" stroke="#0941b1"></path><path d="M452 559L521 473L443 440Z" fill="#003990" stroke="#003990"></path><path d="M299 266L302 358L397 277Z" fill="#002b5d" stroke="#002b5d"></path><path d="M265 183L299 266L323 235Z" fill="#00101c" stroke="#00101c"></path><path d="M323 235L299 266L397 277Z" fill="#003990" stroke="#003990"></path><path d="M684 385L733 282L651 271Z" fill="#00306e" stroke="#00306e"></path><path d="M666 95L600 89L597 160Z" fill="#00306e" stroke="#00306e"></path><path d="M692 146L597 160L673 248Z" fill="#00254d" stroke="#00254d"></path><path d="M597 160L600 89L502 124Z" fill="#00101c" stroke="#00101c"></path><path d="M502 124L456 61L440 153Z" fill="#00182b" stroke="#00182b"></path><path d="M346 503L452 559L443 440Z" fill="#00306e" stroke="#00306e"></path><path d="M346 503L443 440L367 433Z" fill="#00182b" stroke="#00182b"></path><path d="M275 448L346 503L367 433Z" fill="#001f3c" stroke="#001f3c"></path><path d="M742 215L692 146L673 248Z" fill="#1b44c2" stroke="#1b44c2"></path><path d="M684 385L759 370L733 282Z" fill="#00306e" stroke="#00306e"></path><path d="M770 435L759 370L684 385Z" fill="#00254d" stroke="#00254d"></path><path d="M733 282L742 215L673 248Z" fill="#00254d" stroke="#00254d"></path><path d="M793 229L742 215L733 282Z" fill="#00101c" stroke="#00101c"></path><path d="M521 46L456 61L502 124Z" fill="#00254d" stroke="#00254d"></path><path d="M456 61L407 75L440 153Z" fill="#1b44c2" stroke="#1b44c2"></path><path d="M372 165L265 183L323 235Z" fill="#003da1" stroke="#003da1"></path><path d="M565 507L691 520L644 458Z" fill="#002b5d" stroke="#002b5d"></path><path d="M644 458L770 435L684 385Z" fill="#00182b" stroke="#00182b"></path><path d="M656 600L691 520L565 507Z" fill="#002b5d" stroke="#002b5d"></path><path d="M568 600L565 507L523 531Z" fill="#00254d" stroke="#00254d"></path><path d="M214 383L275 448L302 358Z" fill="#1b44c2" stroke="#1b44c2"></path><path d="M302 358L275 448L361 398Z" fill="#001f3c" stroke="#001f3c"></path><path d="M692 146L666 95L597 160Z" fill="#003da1" stroke="#003da1"></path><path d="M600 89L521 46L502 124Z" fill="#00357f" stroke="#00357f"></path><path d="M745 59L666 95L692 146Z" fill="#002b5d" stroke="#002b5d"></path><path d="M559 0L521 46L600 89Z" fill="#00101c" stroke="#00101c"></path><path d="M691 520L770 435L644 458Z" fill="#00101c" stroke="#00101c"></path><path d="M854 304L793 229L733 282Z" fill="#002b5d" stroke="#002b5d"></path><path d="M395 600L481 600L452 559Z" fill="#0941b1" stroke="#0941b1"></path><path d="M452 559L481 600L523 531Z" fill="#002b5d" stroke="#002b5d"></path><path d="M407 75L325 108L372 165Z" fill="#00101c" stroke="#00101c"></path><path d="M325 108L265 183L372 165Z" fill="#0941b1" stroke="#0941b1"></path><path d="M196 292L214 383L302 358Z" fill="#003da1" stroke="#003da1"></path><path d="M481 600L556 600L523 531Z" fill="#0941b1" stroke="#0941b1"></path><path d="M556 600L568 600L523 531Z" fill="#003990" stroke="#003990"></path><path d="M275 448L309 526L346 503Z" fill="#003990" stroke="#003990"></path><path d="M346 503L395 600L452 559Z" fill="#00101c" stroke="#00101c"></path><path d="M817 360L733 282L759 370Z" fill="#00182b" stroke="#00182b"></path><path d="M742 215L770 148L692 146Z" fill="#00182b" stroke="#00182b"></path><path d="M691 520L715 541L770 435Z" fill="#1b44c2" stroke="#1b44c2"></path><path d="M656 600L715 541L691 520Z" fill="#002b5d" stroke="#002b5d"></path><path d="M309 526L395 600L346 503Z" fill="#00357f" stroke="#00357f"></path><path d="M196 292L302 358L299 266Z" fill="#002b5d" stroke="#002b5d"></path><path d="M275 448L216 513L309 526Z" fill="#002b5d" stroke="#002b5d"></path><path d="M801 460L817 360L770 435Z" fill="#003da1" stroke="#003da1"></path><path d="M770 435L817 360L759 370Z" fill="#00182b" stroke="#00182b"></path><path d="M793 229L770 148L742 215Z" fill="#00254d" stroke="#00254d"></path><path d="M325 108L249 156L265 183Z" fill="#00182b" stroke="#00182b"></path><path d="M193 206L196 292L299 266Z" fill="#00101c" stroke="#00101c"></path><path d="M568 600L656 600L565 507Z" fill="#001f3c" stroke="#001f3c"></path><path d="M178 287L196 292L193 206Z" fill="#00254d" stroke="#00254d"></path><path d="M840 515L801 460L715 541Z" fill="#001f3c" stroke="#001f3c"></path><path d="M715 541L801 460L770 435Z" fill="#003990" stroke="#003990"></path><path d="M633 0L600 89L666 95Z" fill="#00182b" stroke="#00182b"></path><path d="M633 0L559 0L600 89Z" fill="#00306e" stroke="#00306e"></path><path d="M521 46L425 0L456 61Z" fill="#00357f" stroke="#00357f"></path><path d="M456 61L425 0L407 75Z" fill="#00254d" stroke="#00254d"></path><path d="M407 75L349 0L325 108Z" fill="#00182b" stroke="#00182b"></path><path d="M174 431L215 448L214 383Z" fill="#00101c" stroke="#00101c"></path><path d="M214 383L215 448L275 448Z" fill="#00101c" stroke="#00101c"></path><path d="M309 526L286 600L395 600Z" fill="#00182b" stroke="#00182b"></path><path d="M559 0L425 0L521 46Z" fill="#002b5d" stroke="#002b5d"></path><path d="M325 108L232 50L249 156Z" fill="#00357f" stroke="#00357f"></path><path d="M196 292L182 366L214 383Z" fill="#003990" stroke="#003990"></path><path d="M193 206L299 266L265 183Z" fill="#001f3c" stroke="#001f3c"></path><path d="M196 292L178 287L182 366Z" fill="#00254d" stroke="#00254d"></path><path d="M249 156L193 206L265 183Z" fill="#002b5d" stroke="#002b5d"></path><path d="M667 0L633 0L666 95Z" fill="#00101c" stroke="#00101c"></path><path d="M900 292L854 304L900 387Z" fill="#00101c" stroke="#00101c"></path><path d="M817 360L854 304L733 282Z" fill="#003990" stroke="#003990"></path><path d="M793 229L842 140L770 148Z" fill="#003da1" stroke="#003da1"></path><path d="M656 600L716 600L715 541Z" fill="#1b44c2" stroke="#1b44c2"></path><path d="M810 46L745 59L770 148Z" fill="#00182b" stroke="#00182b"></path><path d="M770 148L745 59L692 146Z" fill="#001f3c" stroke="#001f3c"></path><path d="M140 501L216 513L215 448Z" fill="#001f3c" stroke="#001f3c"></path><path d="M215 448L216 513L275 448Z" fill="#00182b" stroke="#00182b"></path><path d="M745 59L667 0L666 95Z" fill="#00306e" stroke="#00306e"></path><path d="M107 394L174 431L182 366Z" fill="#00254d" stroke="#00254d"></path><path d="M182 366L174 431L214 383Z" fill="#003da1" stroke="#003da1"></path><path d="M425 0L349 0L407 75Z" fill="#0941b1" stroke="#0941b1"></path><path d="M249 156L162 77L193 206Z" fill="#00254d" stroke="#00254d"></path><path d="M216 513L286 600L309 526Z" fill="#1b44c2" stroke="#1b44c2"></path><path d="M349 0L326 0L325 108Z" fill="#003990" stroke="#003990"></path><path d="M900 224L842 140L793 229Z" fill="#1b44c2" stroke="#1b44c2"></path><path d="M844 600L840 515L715 541Z" fill="#00182b" stroke="#00182b"></path><path d="M900 427L900 387L817 360Z" fill="#00306e" stroke="#00306e"></path><path d="M745 59L722 0L667 0Z" fill="#001f3c" stroke="#001f3c"></path><path d="M807 0L722 0L745 59Z" fill="#00101c" stroke="#00101c"></path><path d="M900 387L854 304L817 360Z" fill="#00101c" stroke="#00101c"></path><path d="M854 304L900 224L793 229Z" fill="#00357f" stroke="#00357f"></path><path d="M326 0L232 50L325 108Z" fill="#00357f" stroke="#00357f"></path><path d="M900 427L817 360L801 460Z" fill="#00182b" stroke="#00182b"></path><path d="M900 292L900 224L854 304Z" fill="#1b44c2" stroke="#1b44c2"></path><path d="M193 206L120 244L178 287Z" fill="#003da1" stroke="#003da1"></path><path d="M178 287L107 394L182 366Z" fill="#00357f" stroke="#00357f"></path><path d="M107 196L120 244L193 206Z" fill="#001f3c" stroke="#001f3c"></path><path d="M840 515L900 427L801 460Z" fill="#1b44c2" stroke="#1b44c2"></path><path d="M807 0L810 46L900 0Z" fill="#00357f" stroke="#00357f"></path><path d="M842 140L810 46L770 148Z" fill="#003da1" stroke="#003da1"></path><path d="M44 327L107 394L178 287Z" fill="#002b5d" stroke="#002b5d"></path><path d="M174 431L140 501L215 448Z" fill="#00306e" stroke="#00306e"></path><path d="M216 513L203 600L286 600Z" fill="#00254d" stroke="#00254d"></path><path d="M96 469L140 501L174 431Z" fill="#001f3c" stroke="#001f3c"></path><path d="M165 600L203 600L216 513Z" fill="#00182b" stroke="#00182b"></path><path d="M104 184L107 196L116 149Z" fill="#002b5d" stroke="#002b5d"></path><path d="M120 244L44 327L178 287Z" fill="#00101c" stroke="#00101c"></path><path d="M202 0L162 77L232 50Z" fill="#00101c" stroke="#00101c"></path><path d="M232 50L162 77L249 156Z" fill="#00254d" stroke="#00254d"></path><path d="M116 149L107 196L193 206Z" fill="#003990" stroke="#003990"></path><path d="M0 303L44 327L0 249Z" fill="#00254d" stroke="#00254d"></path><path d="M162 77L116 149L193 206Z" fill="#002b5d" stroke="#002b5d"></path><path d="M716 600L844 600L715 541Z" fill="#00357f" stroke="#00357f"></path><path d="M840 515L900 517L900 427Z" fill="#00306e" stroke="#00306e"></path><path d="M900 88L810 46L842 140Z" fill="#0941b1" stroke="#0941b1"></path><path d="M810 46L807 0L745 59Z" fill="#003da1" stroke="#003da1"></path><path d="M844 600L900 517L840 515Z" fill="#1b44c2" stroke="#1b44c2"></path><path d="M900 224L900 119L842 140Z" fill="#0941b1" stroke="#0941b1"></path><path d="M107 394L96 469L174 431Z" fill="#0941b1" stroke="#0941b1"></path><path d="M140 501L165 600L216 513Z" fill="#001f3c" stroke="#001f3c"></path><path d="M0 438L96 469L107 394Z" fill="#002b5d" stroke="#002b5d"></path><path d="M326 0L202 0L232 50Z" fill="#00101c" stroke="#00101c"></path><path d="M162 77L109 96L116 149Z" fill="#002b5d" stroke="#002b5d"></path><path d="M106 600L165 600L140 501Z" fill="#00306e" stroke="#00306e"></path><path d="M900 119L900 88L842 140Z" fill="#003990" stroke="#003990"></path><path d="M116 149L0 128L104 184Z" fill="#00254d" stroke="#00254d"></path><path d="M102 0L109 96L162 77Z" fill="#00182b" stroke="#00182b"></path><path d="M44 327L120 244L0 249Z" fill="#001f3c" stroke="#001f3c"></path><path d="M120 244L107 196L0 249Z" fill="#002b5d" stroke="#002b5d"></path><path d="M844 600L900 600L900 517Z" fill="#1b44c2" stroke="#1b44c2"></path><path d="M202 0L145 0L162 77Z" fill="#003990" stroke="#003990"></path><path d="M0 438L62 516L96 469Z" fill="#00254d" stroke="#00254d"></path><path d="M96 469L62 516L140 501Z" fill="#003da1" stroke="#003da1"></path><path d="M62 516L106 600L140 501Z" fill="#00101c" stroke="#00101c"></path><path d="M900 88L900 0L810 46Z" fill="#00182b" stroke="#00182b"></path><path d="M0 249L104 184L0 128Z" fill="#003da1" stroke="#003da1"></path><path d="M0 249L107 196L104 184Z" fill="#0941b1" stroke="#0941b1"></path><path d="M44 327L0 365L107 394Z" fill="#003990" stroke="#003990"></path><path d="M0 303L0 365L44 327Z" fill="#00182b" stroke="#00182b"></path><path d="M0 128L116 149L109 96Z" fill="#00357f" stroke="#00357f"></path><path d="M145 0L102 0L162 77Z" fill="#002b5d" stroke="#002b5d"></path><path d="M0 365L0 438L107 394Z" fill="#003990" stroke="#003990"></path><path d="M62 516L0 600L106 600Z" fill="#1b44c2" stroke="#1b44c2"></path><path d="M0 45L0 128L109 96Z" fill="#0941b1" stroke="#0941b1"></path><path d="M0 438L0 530L62 516Z" fill="#003990" stroke="#003990"></path><path d="M102 0L0 45L109 96Z" fill="#001f3c" stroke="#001f3c"></path><path d="M0 530L0 600L62 516Z" fill="#00182b" stroke="#00182b"></path><path d="M102 0L0 0L0 45Z" fill="#00357f" stroke="#00357f"></path></g></svg>