<svg width="512" height="512" viewBox="0 0 512 512" fill="none" xmlns="http://www.w3.org/2000/svg">
<path fill-rule="evenodd" clip-rule="evenodd" d="M117.333 160V426.667C117.333 435.154 120.705 443.293 126.706 449.294C132.707 455.295 140.846 458.667 149.333 458.667H384C392.487 458.667 400.626 455.295 406.627 449.294C412.628 443.293 416 435.154 416 426.667V160H117.333Z" fill="#FF0000" stroke="#FF0000"/>
<path fill-rule="evenodd" clip-rule="evenodd" d="M181.333 222.08V396.587ZM266.667 222.08V396.587ZM352 222.08V396.587ZM192 92.4374V69.2054C192 54.5494 205.376 42.6667 221.867 42.6667H311.467C327.957 42.6667 341.333 54.5494 341.333 69.2054V92.4587" fill="#FF0000"/>
<path d="M181.333 222.08V396.587M266.667 222.08V396.587M352 222.08V396.587M192 92.4374V69.2054C192 54.5494 205.376 42.6667 221.867 42.6667H311.467C327.957 42.6667 341.333 54.5494 341.333 69.2054V92.4587" stroke="#FF0000" stroke-linecap="round"/>
<path d="M426.667 96H106.667C88.9935 96 74.6666 110.327 74.6666 128C74.6666 145.673 88.9935 160 106.667 160H426.667C444.34 160 458.667 145.673 458.667 128C458.667 110.327 444.34 96 426.667 96Z" fill="#FF0000" stroke="#FF0000"/>
</svg>
