<svg width="512" height="512" viewBox="0 0 512 512" fill="none" xmlns="http://www.w3.org/2000/svg">
<path d="M474.56 166.4L432 136V104H272V136L229.44 166.4C225.282 169.36 221.893 173.272 219.555 177.809C217.217 182.346 215.998 187.376 216 192.48V456C216 464.487 219.371 472.626 225.373 478.627C231.374 484.629 239.513 488 248 488H456C464.487 488 472.626 484.629 478.627 478.627C484.629 472.626 488 464.487 488 456V192.48C488.002 187.376 486.783 182.346 484.445 177.809C482.107 173.272 478.718 169.36 474.56 166.4Z" fill="#C78700"/>
<path d="M216 192.48V448H488V192.48C487.979 186.667 486.375 180.97 483.36 176H220.64C217.625 180.97 216.021 186.667 216 192.48Z" fill="#FFC834"/>
<path d="M440 24H264C255.163 24 248 31.1634 248 40V88C248 96.8366 255.163 104 264 104H440C448.837 104 456 96.8366 456 88V40C456 31.1634 448.837 24 440 24Z" fill="#212529"/>
<path d="M372 264C371.141 243.742 364.168 224.219 352 208C339.832 224.219 332.859 243.742 332 264C332.859 284.258 339.832 303.781 352 320C364.168 303.781 371.141 284.258 372 264ZM430.08 317.44C441.694 306.93 450.028 293.291 454.08 278.16C437.997 278.183 422.358 283.434 409.52 293.12C397.596 304.354 388.802 318.497 384 334.16C400.648 333.134 416.648 327.329 430.08 317.44ZM400 390.96C410.791 396.326 423.051 397.985 434.88 395.68C430.865 384.267 423.149 374.524 412.96 368C402.181 362.593 389.908 360.932 378.08 363.28C382.117 374.681 389.827 384.418 400 390.96ZM273.92 317.44C262.306 306.93 253.972 293.291 249.92 278.16C266.003 278.183 281.642 283.434 294.48 293.12C306.404 304.354 315.198 318.497 320 334.16C303.352 333.134 287.352 327.329 273.92 317.44ZM304.4 390.96C293.609 396.326 281.349 397.985 269.52 395.68C273.431 384.325 281 374.59 291.04 368C301.819 362.593 314.092 360.932 325.92 363.28C321.987 374.623 314.423 384.352 304.4 390.96Z" fill="#004A31"/>
<path d="M266.08 488C273.17 480.664 277.941 471.401 279.798 461.37C281.655 451.338 280.515 440.981 276.521 431.593C272.527 422.206 265.855 414.203 257.34 408.584C248.824 402.965 238.842 399.979 228.64 400H216V456C216 464.487 219.371 472.626 225.373 478.627C231.374 484.629 239.513 488 248 488H266.08Z" fill="#A66D00"/>
<path d="M228.64 400H216V448H280C278.982 435.03 273.145 422.911 263.64 414.027C254.135 405.144 241.649 400.14 228.64 400Z" fill="#E9A300"/>
<path d="M228.64 488C248.522 488 264.64 471.882 264.64 452C264.64 432.118 248.522 416 228.64 416H123.44C103.558 416 87.44 432.118 87.44 452C87.44 471.882 103.558 488 123.44 488H228.64Z" fill="#D7E6EF"/>
<path d="M176 488H123.36C113.812 488 104.655 484.207 97.9042 477.456C91.1529 470.705 87.36 461.548 87.36 452C87.36 442.452 91.1529 433.295 97.9042 426.544C104.655 419.793 113.812 416 123.36 416H176V488Z" fill="#004A31"/>
<path d="M29.3084 427.761C15.2495 441.819 15.2495 464.613 29.3084 478.672C43.3673 492.731 66.1612 492.731 80.2201 478.672L154.608 404.285C168.667 390.226 168.667 367.432 154.608 353.373C140.549 339.314 117.755 339.314 103.696 353.373L29.3084 427.761Z" fill="#D7E6EF"/>
<path d="M66.56 390.56L104 353.36C110.824 347.001 119.851 343.539 129.177 343.704C138.504 343.868 147.402 347.646 153.998 354.242C160.594 360.838 164.372 369.736 164.536 379.063C164.701 388.389 161.239 397.416 154.88 404.24L117.68 441.44L66.56 390.56Z" fill="#FFC834"/>
<path d="M40 56C48.8366 56 56 48.8366 56 40C56 31.1634 48.8366 24 40 24C31.1634 24 24 31.1634 24 40C24 48.8366 31.1634 56 40 56Z" fill="#004A31"/>
<path d="M272 104H432V136H272V104Z" fill="#A66D00"/>
<path d="M352 328C353.202 327.994 354.387 327.718 355.467 327.192C356.547 326.666 357.495 325.903 358.24 324.96C371.56 307.345 379.155 286.068 380 264C379.155 241.932 371.56 220.655 358.24 203.04C357.49 202.106 356.541 201.352 355.461 200.833C354.38 200.315 353.198 200.046 352 200.046C350.802 200.046 349.62 200.315 348.539 200.833C347.459 201.352 346.51 202.106 345.76 203.04C332.44 220.655 324.845 241.932 324 264C324.845 286.068 332.44 307.345 345.76 324.96C346.505 325.903 347.453 326.666 348.533 327.192C349.613 327.718 350.798 327.994 352 328ZM352 222.64C359.401 235.204 363.528 249.426 364 264C363.528 278.574 359.401 292.796 352 305.36C344.599 292.796 340.472 278.574 340 264C340.472 249.426 344.599 235.204 352 222.64ZM377.44 339.04C378.185 340.008 379.142 340.793 380.238 341.333C381.333 341.874 382.538 342.157 383.76 342.16C402.384 341.171 420.304 334.716 435.28 323.6C448.23 311.955 457.537 296.813 462.08 280C462.354 278.84 462.366 277.634 462.115 276.469C461.863 275.305 461.355 274.211 460.626 273.268C459.898 272.325 458.968 271.556 457.905 271.019C456.841 270.481 455.671 270.188 454.48 270.16C436.42 270.112 418.847 276.017 404.48 286.96C391.172 299.16 381.344 314.675 376 331.92C375.661 333.136 375.615 334.415 375.865 335.653C376.116 336.89 376.655 338.051 377.44 339.04ZM414.8 299.04C422.86 292.773 432.388 288.67 442.48 287.12C438.481 296.314 432.498 304.509 424.96 311.12C416.541 317.576 406.736 321.986 396.32 324C400.736 314.567 407.024 306.129 414.8 299.2V299.04ZM416.96 360.88C404.415 354.54 390.112 352.57 376.32 355.28C375.232 355.517 374.206 355.979 373.307 356.635C372.408 357.292 371.655 358.129 371.098 359.092C370.541 360.056 370.191 361.126 370.071 362.233C369.951 363.339 370.063 364.459 370.4 365.52C374.956 378.826 383.825 390.229 395.6 397.92C408.134 404.295 422.449 406.268 436.24 403.52C437.321 403.274 438.338 402.805 439.228 402.145C440.118 401.484 440.861 400.646 441.411 399.684C441.96 398.721 442.303 397.654 442.418 396.552C442.533 395.45 442.418 394.336 442.08 393.28C437.6 379.956 428.748 368.538 416.96 360.88ZM403.6 384C398.021 380.564 393.398 375.776 390.16 370.08C396.722 370.065 403.184 371.687 408.96 374.8C414.517 378.238 419.113 383.027 422.32 388.72C415.784 388.735 409.348 387.113 403.6 384ZM268.72 323.6C283.629 334.672 301.459 341.125 320 342.16C321.269 342.211 322.531 341.959 323.684 341.426C324.836 340.892 325.844 340.092 326.626 339.092C327.408 338.091 327.94 336.919 328.179 335.672C328.418 334.425 328.357 333.139 328 331.92C322.679 314.684 312.879 299.169 299.6 286.96C285.227 276.027 267.658 270.124 249.6 270.16C248.375 270.127 247.159 270.376 246.045 270.888C244.932 271.399 243.951 272.16 243.177 273.11C242.404 274.061 241.86 275.177 241.587 276.372C241.313 277.566 241.318 278.808 241.6 280C246.232 296.851 255.652 311.996 268.72 323.6ZM289.2 299.2C297.003 306.2 303.291 314.721 307.68 324.24C297.264 322.226 287.459 317.816 279.04 311.36C271.492 304.758 265.508 296.56 261.52 287.36C271.604 288.887 281.131 292.962 289.2 299.2ZM328 355.28C314.208 352.57 299.905 354.54 287.36 360.88C275.643 368.436 266.798 379.704 262.24 392.88C261.902 393.936 261.787 395.05 261.902 396.152C262.017 397.254 262.36 398.321 262.909 399.284C263.459 400.246 264.202 401.084 265.092 401.745C265.982 402.405 266.999 402.874 268.08 403.12C281.871 405.868 296.186 403.895 308.72 397.52C320.495 389.829 329.364 378.426 333.92 365.12C334.194 364.085 334.258 363.005 334.107 361.945C333.956 360.884 333.594 359.865 333.042 358.948C332.49 358.03 331.759 357.232 330.893 356.602C330.027 355.972 329.043 355.523 328 355.28ZM300.4 384C294.652 387.113 288.216 388.735 281.68 388.72C284.887 383.027 289.483 378.238 295.04 374.8C300.825 371.709 307.281 370.088 313.84 370.08C310.602 375.776 305.979 380.564 300.4 384ZM352 376C349.878 376 347.843 376.843 346.343 378.343C344.843 379.843 344 381.878 344 384V416C344 418.122 344.843 420.157 346.343 421.657C347.843 423.157 349.878 424 352 424C354.122 424 356.157 423.157 357.657 421.657C359.157 420.157 360 418.122 360 416V384C360 381.878 359.157 379.843 357.657 378.343C356.157 376.843 354.122 376 352 376Z" fill="#1E120B"/>
<path d="M352 360C356.418 360 360 356.418 360 352C360 347.582 356.418 344 352 344C347.582 344 344 347.582 344 352C344 356.418 347.582 360 352 360Z" fill="#1E120B"/>
<path d="M288 80C290.122 80 292.157 79.1571 293.657 77.6569C295.157 76.1566 296 74.1217 296 72V56C296 53.8783 295.157 51.8434 293.657 50.3431C292.157 48.8429 290.122 48 288 48C285.878 48 283.843 48.8429 282.343 50.3431C280.843 51.8434 280 53.8783 280 56V72C280 74.1217 280.843 76.1566 282.343 77.6569C283.843 79.1571 285.878 80 288 80ZM320 80C322.122 80 324.157 79.1571 325.657 77.6569C327.157 76.1566 328 74.1217 328 72V56C328 53.8783 327.157 51.8434 325.657 50.3431C324.157 48.8429 322.122 48 320 48C317.878 48 315.843 48.8429 314.343 50.3431C312.843 51.8434 312 53.8783 312 56V72C312 74.1217 312.843 76.1566 314.343 77.6569C315.843 79.1571 317.878 80 320 80ZM352 80C354.122 80 356.157 79.1571 357.657 77.6569C359.157 76.1566 360 74.1217 360 72V56C360 53.8783 359.157 51.8434 357.657 50.3431C356.157 48.8429 354.122 48 352 48C349.878 48 347.843 48.8429 346.343 50.3431C344.843 51.8434 344 53.8783 344 56V72C344 74.1217 344.843 76.1566 346.343 77.6569C347.843 79.1571 349.878 80 352 80ZM384 80C386.122 80 388.157 79.1571 389.657 77.6569C391.157 76.1566 392 74.1217 392 72V56C392 53.8783 391.157 51.8434 389.657 50.3431C388.157 48.8429 386.122 48 384 48C381.878 48 379.843 48.8429 378.343 50.3431C376.843 51.8434 376 53.8783 376 56V72C376 74.1217 376.843 76.1566 378.343 77.6569C379.843 79.1571 381.878 80 384 80ZM416 80C418.122 80 420.157 79.1571 421.657 77.6569C423.157 76.1566 424 74.1217 424 72V56C424 53.8783 423.157 51.8434 421.657 50.3431C420.157 48.8429 418.122 48 416 48C413.878 48 411.843 48.8429 410.343 50.3431C408.843 51.8434 408 53.8783 408 56V72C408 74.1217 408.843 76.1566 410.343 77.6569C411.843 79.1571 413.878 80 416 80Z" fill="#1E120B"/>
<path d="M479.28 160L440 131.92V112C446.365 112 452.47 109.471 456.971 104.971C461.471 100.47 464 94.3652 464 88V40C464 33.6348 461.471 27.5303 456.971 23.0294C452.47 18.5286 446.365 16 440 16H264C257.635 16 251.53 18.5286 247.029 23.0294C242.529 27.5303 240 33.6348 240 40V88C240 94.3652 242.529 100.47 247.029 104.971C251.53 109.471 257.635 112 264 112V131.92L224.72 160C219.554 163.697 215.343 168.572 212.436 174.22C209.528 179.868 208.008 186.127 208 192.48V408H161.92C169.919 399.513 174.219 388.196 173.874 376.539C173.529 364.882 168.567 353.839 160.08 345.84C151.593 337.841 140.276 333.541 128.619 333.886C116.962 334.231 105.919 339.193 97.92 347.68L24 422.08C15.8023 430.363 11.204 441.546 11.204 453.2C11.204 464.854 15.8023 476.037 24 484.32C28.4648 488.699 33.7984 492.092 39.6562 494.282C45.5141 496.471 51.7661 497.408 58.0083 497.031C64.2506 496.654 70.3444 494.972 75.8963 492.093C81.4481 489.215 86.3346 485.204 90.24 480.32C94.2884 485.289 99.3861 489.3 105.168 492.066C110.949 494.832 117.271 496.285 123.68 496.32H456C466.609 496.32 476.783 492.106 484.284 484.604C491.786 477.103 496 466.929 496 456.32V192.48C495.992 186.127 494.472 179.868 491.564 174.22C488.657 168.572 484.446 163.697 479.28 160ZM429.44 144L463.04 168H240.96L274.56 144H429.44ZM256 88V40C256 37.8783 256.843 35.8434 258.343 34.3431C259.843 32.8429 261.878 32 264 32H440C442.122 32 444.157 32.8429 445.657 34.3431C447.157 35.8434 448 37.8783 448 40V88C448 90.1217 447.157 92.1566 445.657 93.6568C444.157 95.1571 442.122 96 440 96H264C261.878 96 259.843 95.1571 258.343 93.6568C256.843 92.1566 256 90.1217 256 88ZM424 112V128H280V112H424ZM224 192.48C224.068 189.57 224.664 186.697 225.76 184H478.24C479.336 186.697 479.932 189.57 480 192.48V440H270.88C268.272 430.801 262.739 422.702 255.118 416.928C247.496 411.154 238.202 408.02 228.64 408H224V192.48ZM109.44 358.96C114.744 353.709 121.917 350.78 129.381 350.817C136.845 350.855 143.989 353.856 149.24 359.16C154.491 364.464 157.42 371.637 157.383 379.101C157.345 386.565 154.344 393.709 149.04 398.96L117.44 430.96L77.84 390.96L109.44 358.96ZM34.96 473.04C32.3283 470.417 30.2402 467.299 28.8155 463.867C27.3907 460.435 26.6573 456.756 26.6573 453.04C26.6573 449.324 27.3907 445.645 28.8155 442.213C30.2402 438.781 32.3283 435.663 34.96 433.04L66.96 401.04L106.56 441.04L74.96 473.04C72.3474 475.691 69.2339 477.796 65.8004 479.233C62.3669 480.67 58.682 481.41 54.96 481.41C51.238 481.41 47.5531 480.67 44.1196 479.233C40.6861 477.796 37.5726 475.691 34.96 473.04ZM101.28 468.96L146.24 424H168V480H123.36C119.077 479.988 114.856 478.985 111.025 477.069C107.195 475.154 103.859 472.379 101.28 468.96ZM184 480V424H228.64C236.066 424 243.188 426.95 248.439 432.201C253.69 437.452 256.64 444.574 256.64 452C256.64 459.426 253.69 466.548 248.439 471.799C243.188 477.05 236.066 480 228.64 480H184ZM456 480H262.56C268.173 473.168 271.601 464.806 272.4 456H480C480 462.365 477.471 468.47 472.971 472.971C468.47 477.471 462.365 480 456 480ZM40 64C44.7468 64 49.3869 62.5924 53.3337 59.9553C57.2805 57.3181 60.3566 53.5698 62.1731 49.1844C63.9896 44.799 64.4649 39.9734 63.5388 35.3178C62.6128 30.6623 60.327 26.3859 56.9706 23.0294C53.6141 19.673 49.3377 17.3872 44.6822 16.4612C40.0266 15.5351 35.201 16.0104 30.8156 17.8269C26.4302 19.6434 22.6819 22.7195 20.0447 26.6663C17.4076 30.6131 16 35.2532 16 40C16 46.3652 18.5286 52.4697 23.0294 56.9706C27.5303 61.4714 33.6348 64 40 64ZM40 32C41.5823 32 43.129 32.4692 44.4446 33.3482C45.7602 34.2273 46.7855 35.4767 47.391 36.9385C47.9965 38.4003 48.155 40.0089 47.8463 41.5607C47.5376 43.1126 46.7757 44.538 45.6569 45.6569C44.538 46.7757 43.1126 47.5376 41.5607 47.8463C40.0089 48.155 38.4003 47.9965 36.9385 47.391C35.4767 46.7855 34.2273 45.7602 33.3482 44.4446C32.4692 43.129 32 41.5823 32 40C32 37.8783 32.8429 35.8434 34.3431 34.3431C35.8434 32.8429 37.8783 32 40 32ZM128 96C125.878 96 123.843 96.8429 122.343 98.3431C120.843 99.8434 120 101.878 120 104V112H112C109.878 112 107.843 112.843 106.343 114.343C104.843 115.843 104 117.878 104 120C104 122.122 104.843 124.157 106.343 125.657C107.843 127.157 109.878 128 112 128H120V136C120 138.122 120.843 140.157 122.343 141.657C123.843 143.157 125.878 144 128 144C130.122 144 132.157 143.157 133.657 141.657C135.157 140.157 136 138.122 136 136V128H144C146.122 128 148.157 127.157 149.657 125.657C151.157 124.157 152 122.122 152 120C152 117.878 151.157 115.843 149.657 114.343C148.157 112.843 146.122 112 144 112H136V104C136 101.878 135.157 99.8434 133.657 98.3431C132.157 96.8429 130.122 96 128 96Z" fill="#1E120B"/>
<path d="M152 256C149.878 256 147.843 256.843 146.343 258.343C144.843 259.843 144 261.878 144 264V272H136C133.878 272 131.843 272.843 130.343 274.343C128.843 275.843 128 277.878 128 280C128 282.122 128.843 284.157 130.343 285.657C131.843 287.157 133.878 288 136 288H144V296C144 298.122 144.843 300.157 146.343 301.657C147.843 303.157 149.878 304 152 304C154.122 304 156.157 303.157 157.657 301.657C159.157 300.157 160 298.122 160 296V288H168C170.122 288 172.157 287.157 173.657 285.657C175.157 284.157 176 282.122 176 280C176 277.878 175.157 275.843 173.657 274.343C172.157 272.843 170.122 272 168 272H160V264C160 261.878 159.157 259.843 157.657 258.343C156.157 256.843 154.122 256 152 256Z" fill="#1E120B"/>
</svg>
