<svg width="400" height="300" viewBox="0 0 400 300" fill="none" xmlns="http://www.w3.org/2000/svg">
<g clip-path="url(#clip0_3_18)">
<path opacity="0.25" d="M399.655 172.405C397.748 192.25 401.326 238.885 366.93 269.939C344.013 290.625 304.243 304.39 234.776 298.714C61.0321 284.521 45.372 323.623 22.7056 236.107C22.7056 236.107 21.819 198.315 12.0982 188.932C2.37727 179.549 0.0392359 148.591 0.0392359 148.591C0.0392359 148.591 -3.01276 104.281 43.4263 80.2291C89.8653 56.1771 113.716 92.6997 135.81 85.6111C157.904 78.5225 145.845 44.5479 187.663 28.4576C229.48 12.3674 250.327 18.6225 270.388 28.4576C290.45 38.2928 324.006 45.056 343.456 34.9668C362.905 24.8776 393.669 39.0787 388.035 73.8629C382.402 108.647 402.84 139.335 399.655 172.405Z" fill="#68E1FD"/>
<path opacity="0.25" d="M399.655 172.405C397.748 192.25 401.326 238.886 366.93 269.939C349.756 285.45 323.096 297.063 281.561 299.524C265.966 300.351 250.334 300.086 234.776 298.73C72.1966 285.45 48.0474 318.829 27.0286 251.475C25.6007 246.871 24.1649 241.735 22.7056 236.107C22.7056 236.107 21.819 198.315 12.0982 188.932C2.37727 179.549 0.0392359 148.591 0.0392359 148.591C0.0392359 148.591 -3.01276 104.281 43.4263 80.2292C89.8653 56.1771 113.716 92.6997 135.81 85.6111C157.904 78.5225 145.845 44.5479 187.663 28.4576C229.48 12.3674 250.327 18.6225 270.388 28.4576C290.45 38.2928 324.006 45.056 343.456 34.9668C362.905 24.8776 393.669 39.0787 388.035 73.8629C382.402 108.647 402.84 139.335 399.655 172.405Z" fill="#01447B"/>
<path opacity="0.42" d="M290.112 256.397C289.744 272.495 285.899 287.498 281.561 299.492C265.966 300.32 250.334 300.054 234.776 298.698C72.1966 285.418 48.0474 318.797 27.0286 251.443L59.1962 210.817C59.1962 210.817 174.592 123.499 309.68 135.882C444.768 148.266 290.991 217.985 290.112 256.397Z" fill="#01447B"/>
<path opacity="0.25" d="M368.013 267.51L366.93 269.931C344.013 290.617 304.243 304.382 234.776 298.706C61.0321 284.521 45.372 323.623 22.7056 236.107C22.7056 236.107 36.5377 181.161 35.8629 128.833L83.518 156.005C83.518 156.005 83.2827 261.628 92.0385 270.653C100.794 279.679 116.604 289.99 116.988 264.716C117.372 239.441 200.6 136.327 235.325 175.247C270.051 214.167 261.538 235.448 263.013 248.173C264.488 260.898 260.032 283.894 278.493 284.457C296.954 285.021 322.374 282.171 322.374 282.171L368.013 267.51Z" fill="#01447B"/>
<path d="M83.518 113.878V268.669C83.518 275.063 81.0076 281.194 76.5391 285.715C72.0706 290.237 66.0099 292.776 59.6905 292.776C53.371 292.776 47.3104 290.237 42.8419 285.715C38.3733 281.194 35.8629 275.063 35.8629 268.669V113.878H83.518Z" fill="#68E1FD"/>
<path d="M83.518 113.878V268.669C83.518 275.063 81.0077 281.194 76.5391 285.715C72.0706 290.237 66.01 292.776 59.6905 292.776C53.371 292.776 47.3104 290.237 42.8419 285.715C38.3733 281.194 35.8629 275.063 35.8629 268.669V113.878H83.518Z" fill="url(#paint0_linear_3_18)"/>
<path d="M77.3277 156.005V266.843C77.3277 276.281 70.0155 284.259 60.6947 284.521C58.4073 284.586 56.1302 284.186 53.9982 283.345C51.8661 282.504 49.9223 281.239 48.2817 279.625C46.6411 278.011 45.3369 276.081 44.4464 273.948C43.5558 271.815 43.0969 269.523 43.0967 267.208V156.005L48.3534 159.323C52.6998 162.07 57.8169 163.297 62.9193 162.816C68.0217 162.336 72.8272 160.175 76.5981 156.664L77.3277 156.005Z" fill="#68E1FD"/>
<path d="M77.3277 156.005V266.843C77.3277 276.281 70.0155 284.259 60.6947 284.521C58.4073 284.586 56.1302 284.186 53.9982 283.345C51.8661 282.504 49.9223 281.239 48.2817 279.625C46.6411 278.011 45.3369 276.081 44.4464 273.948C43.5558 271.815 43.0969 269.523 43.0967 267.208V156.005L48.3534 159.323C52.6998 162.07 57.8169 163.297 62.9193 162.816C68.0217 162.336 72.8272 160.175 76.5981 156.664L77.3277 156.005Z" fill="url(#paint1_linear_3_18)"/>
<path d="M212.62 34.9747H160.359C156.637 34.9747 153.62 38.0258 153.62 41.7895C153.62 45.5532 156.637 48.6042 160.359 48.6042H212.62C216.342 48.6042 219.359 45.5532 219.359 41.7895C219.359 38.0258 216.342 34.9747 212.62 34.9747Z" fill="#68E1FD"/>
<path d="M212.62 34.9747H160.359C156.637 34.9747 153.62 38.0258 153.62 41.7895C153.62 45.5532 156.637 48.6042 160.359 48.6042H212.62C216.342 48.6042 219.359 45.5532 219.359 41.7895C219.359 38.0258 216.342 34.9747 212.62 34.9747Z" fill="url(#paint2_linear_3_18)"/>
<path d="M212.62 34.9747H160.359C156.637 34.9747 153.62 38.0258 153.62 41.7895C153.62 45.5532 156.637 48.6042 160.359 48.6042H212.62C216.342 48.6042 219.359 45.5532 219.359 41.7895C219.359 38.0258 216.342 34.9747 212.62 34.9747Z" fill="url(#paint3_linear_3_18)"/>
<path d="M270.051 214.167C270.051 225.321 267.87 236.364 263.633 246.662C259.396 256.959 253.188 266.306 245.365 274.165C237.542 282.024 228.259 288.239 218.052 292.452C207.844 296.666 196.913 298.794 185.889 298.714C139.756 298.381 102.371 259.778 102.936 213.111C103.131 197.025 107.858 181.329 116.562 167.866C125.266 154.402 137.585 143.731 152.074 137.105C155.681 135.456 158.741 132.79 160.888 129.427C163.035 126.063 164.178 122.145 164.18 118.141V48.5963H208.846V118.157C208.849 122.164 209.993 126.085 212.141 129.451C214.29 132.817 217.351 135.486 220.96 137.137C235.595 143.843 248.009 154.676 256.716 168.338C265.422 182 270.052 197.911 270.051 214.167Z" fill="#68E1FD"/>
<path d="M270.051 214.167C270.051 225.321 267.87 236.364 263.633 246.662C259.396 256.959 253.188 266.306 245.365 274.165C237.542 282.024 228.259 288.239 218.052 292.452C207.844 296.666 196.913 298.794 185.889 298.714C139.756 298.381 102.371 259.778 102.936 213.111C103.131 197.025 107.858 181.329 116.562 167.866C125.266 154.402 137.585 143.731 152.074 137.105C155.681 135.456 158.741 132.79 160.888 129.427C163.035 126.063 164.178 122.145 164.18 118.141V48.5963H208.846V118.157C208.849 122.164 209.993 126.085 212.141 129.451C214.29 132.817 217.351 135.486 220.96 137.137C235.595 143.843 248.009 154.676 256.716 168.338C265.423 182 270.052 197.911 270.051 214.167V214.167Z" fill="url(#paint4_linear_3_18)"/>
<path d="M270.051 214.167C270.051 225.321 267.87 236.364 263.633 246.662C259.396 256.959 253.188 266.306 245.365 274.165C237.542 282.024 228.259 288.239 218.052 292.452C207.844 296.666 196.913 298.794 185.889 298.714C139.756 298.381 102.371 259.778 102.936 213.111C103.131 197.025 107.858 181.329 116.562 167.866C125.266 154.402 137.585 143.731 152.074 137.105C155.681 135.456 158.741 132.79 160.888 129.427C163.035 126.063 164.178 122.145 164.18 118.141V48.5963H208.846V118.157C208.849 122.164 209.993 126.085 212.141 129.451C214.29 132.817 217.351 135.486 220.96 137.137C235.595 143.843 248.009 154.676 256.716 168.338C265.423 182 270.052 197.911 270.051 214.167V214.167Z" fill="url(#paint5_linear_3_18)"/>
<path d="M265.163 214.325C265.163 224.715 263.131 235.002 259.185 244.594C255.238 254.185 249.455 262.892 242.168 270.212C234.881 277.532 226.235 283.322 216.726 287.246C207.218 291.17 197.037 293.152 186.768 293.078C143.797 292.769 108.977 256.809 109.503 213.341C109.687 198.358 114.091 183.74 122.198 171.201C130.306 158.662 141.78 148.723 155.275 142.55C162.132 139.375 169.79 132.509 169.79 124.888V48.6042H203.291V124.904C203.291 132.54 212.588 139.431 219.454 142.582C233.082 148.831 244.642 158.921 252.748 171.645C260.855 184.369 265.165 199.187 265.163 214.325V214.325Z" fill="url(#paint6_linear_3_18)"/>
<path d="M142.251 213.222C142.251 213.222 134.719 207.856 116.988 211.134C116.988 211.134 115.152 200.132 131.644 198.481C148.136 196.83 184.03 203.085 199.518 193.552C215.005 184.018 242.293 176.882 254.571 198.481C254.571 198.481 227.37 202.45 215.295 213.222C203.221 223.994 162.289 225.169 142.251 213.222V213.222Z" fill="#68E1FD"/>
<path d="M142.251 213.222C142.251 213.222 134.719 207.856 116.988 211.134C116.988 211.134 115.152 200.132 131.644 198.481C148.136 196.83 184.03 203.085 199.518 193.552C215.005 184.018 242.293 176.882 254.571 198.481C254.571 198.481 227.37 202.45 215.295 213.222C203.221 223.994 162.289 225.169 142.251 213.222V213.222Z" fill="url(#paint7_linear_3_18)"/>
<path d="M257.67 214.167C257.768 223.576 256.022 232.911 252.531 241.633C249.04 250.355 243.874 258.289 237.333 264.978C230.791 271.667 223.003 276.977 214.42 280.6C205.838 284.224 196.629 286.09 187.329 286.09C178.029 286.09 168.821 284.224 160.238 280.6C151.655 276.977 143.867 271.667 137.326 264.978C130.784 258.289 125.619 250.355 122.128 241.633C118.637 232.911 116.89 223.576 116.988 214.167C116.988 174.866 164.063 237.862 190.809 209.364C216.19 182.327 257.67 174.866 257.67 214.167Z" fill="#68E1FD"/>
<path d="M257.67 214.167C257.768 223.576 256.022 232.911 252.531 241.633C249.04 250.355 243.874 258.289 237.333 264.978C230.791 271.667 223.003 276.977 214.42 280.6C205.838 284.224 196.629 286.09 187.329 286.09C178.029 286.09 168.821 284.224 160.238 280.6C151.655 276.977 143.867 271.667 137.326 264.978C130.784 258.289 125.619 250.355 122.128 241.633C118.637 232.911 116.89 223.576 116.988 214.167C116.988 174.866 164.063 237.861 190.809 209.364C216.19 182.327 257.67 174.866 257.67 214.167Z" fill="url(#paint8_linear_3_18)"/>
<path d="M362.395 279.663C362.395 279.663 358.37 287.855 358.59 289.689C358.81 291.522 362.576 291.879 366.216 289.689C369.857 287.498 372.603 281.457 372.603 281.457L373.505 285.426H375.27L372.603 275.527C372.603 275.527 365.102 278.623 362.395 279.663V279.663ZM327.137 276.678C327.617 277.681 327.871 278.779 327.882 279.893C327.772 281.346 327.137 286.49 327.137 286.49H325.677V283.584C325.677 283.584 321.48 287.72 319.048 288.276C316.615 288.831 310.762 290.657 309.107 289.069C307.452 287.482 316.576 279.861 316.576 279.861L327.137 276.678Z" fill="#25233A"/>
<path d="M317.722 278.774C316.741 279.687 315.282 280.79 315.854 282.005C316.002 282.258 316.203 282.475 316.443 282.641C316.683 282.807 316.956 282.918 317.243 282.965C318.953 283.37 320.727 282.767 322.374 282.171C323.354 281.878 324.277 281.419 325.104 280.814C326.283 279.752 327.011 278.27 327.136 276.678C327.317 275.091 327.803 271.55 327.592 269.987C327.152 266.859 324.249 262.342 322.1 266.216C320.405 269.407 320.656 276.051 317.722 278.774Z" fill="url(#paint9_linear_3_18)"/>
<path d="M363.321 267.176C363.378 267.153 363.438 267.141 363.499 267.142C363.56 267.144 363.621 267.158 363.676 267.184C363.731 267.21 363.781 267.248 363.821 267.294C363.861 267.341 363.891 267.395 363.91 267.454L362.968 267.51C361.995 268.812 362.819 270.63 362.968 272.273C363.533 277.464 360.23 283.386 360.497 283.672C361.168 284.007 361.88 284.25 362.615 284.394C365.879 285.267 370.28 279.742 372.03 276.829C372.293 276.452 372.462 276.016 372.524 275.559C372.511 274.997 372.349 274.448 372.053 273.971L370.108 270.082C369.182 268.24 367.809 266.113 365.769 266.24C364.208 266.351 364.208 265.779 363.321 267.176V267.176Z" fill="url(#paint10_linear_3_18)"/>
<path d="M318.796 212.246C317.14 217.555 316.149 223.054 315.846 228.614C315.635 234.599 316.592 240.521 317.541 246.308L319.895 260.636C320.421 263.811 319.283 267.661 320.727 270.042C322.17 272.423 326.485 272.892 328.007 270.645C327.835 259.826 327.615 253.277 328.439 242.537C329.027 234.869 331.577 226.113 335.006 220.684C337.359 217.001 345.864 202.831 348.155 199.092C350.446 195.354 350.07 193.663 349.505 188.495C348.398 178.39 334.417 181.399 329.694 186.408C324.783 191.599 321.182 204.006 318.796 212.246V212.246Z" fill="#68E1FD"/>
<path d="M348.14 199.084C347.465 200.188 346.257 202.18 344.829 204.546C341.377 210.237 336.63 218.04 334.99 220.676C331.561 226.105 329.012 234.861 328.423 242.529C327.599 253.269 327.819 259.818 327.992 270.637C327.721 271.011 327.379 271.327 326.985 271.564C326.591 271.801 326.155 271.956 325.701 272.019C325.134 272.11 324.557 272.11 323.99 272.019H323.951C323.304 271.939 322.68 271.722 322.122 271.381C321.563 271.041 321.083 270.584 320.711 270.042C319.267 267.661 320.405 263.843 319.879 260.636C319.1 255.873 318.315 251.097 317.525 246.308C316.576 240.513 315.619 234.599 315.831 228.614C316.133 223.057 317.125 217.561 318.781 212.254C321.134 204.03 324.767 191.615 329.663 186.408C334.37 181.399 348.367 178.39 349.473 188.495C350.054 193.687 350.415 195.346 348.14 199.084V199.084Z" fill="url(#paint11_linear_3_18)"/>
<path d="M344.829 204.546C341.377 210.237 336.63 218.04 334.99 220.676C331.562 226.105 329.012 234.861 328.423 242.529C327.599 253.269 327.819 259.818 327.992 270.637C327.721 271.011 327.379 271.326 326.985 271.564C326.592 271.801 326.155 271.956 325.701 272.019H323.951V233.631C323.951 221.112 337.548 199.497 337.548 199.497C340.215 196.592 342.961 200.537 344.829 204.546V204.546Z" fill="url(#paint12_linear_3_18)"/>
<path d="M354.989 254.595C356.903 259.818 358.551 265.335 361.634 268.812C363.611 271.05 364.114 272.098 368.546 266.891C370.704 264.358 368.939 261.517 367.856 258.119C362.513 241.307 365.016 221.208 365.118 202.331C365.204 187.162 340.184 175.128 339.18 188.392C336.497 223.795 349.881 240.64 354.989 254.595Z" fill="#68E1FD"/>
<path d="M368.013 267.51C365.62 269.804 364.325 271.915 362.348 269.685C359.265 266.2 356.903 259.81 354.989 254.603C349.881 240.648 337.548 222.168 339.18 188.4C339.752 176.493 360.191 184.931 364.372 197.727C364.867 199.213 365.119 200.771 365.118 202.339C365.016 221.216 362.513 241.315 367.856 258.127C368.939 261.517 370.422 265.224 368.013 267.51V267.51Z" fill="url(#paint13_linear_3_18)"/>
<path d="M326.423 53.4861C331.797 53.7242 336.559 56.955 340.702 60.416C341.328 61.0024 342.04 61.4871 342.812 61.8527C343.801 62.2496 343.997 62.6942 345.048 62.8291C348.971 63.3609 353.184 65.8217 355.052 69.3462C356.919 72.8706 357.547 76.9349 357.829 80.9198C358.08 84.5553 358.159 88.4688 360.285 91.4058C363.58 95.9543 370.139 96.1686 374.956 99.0104C378.495 101.149 381.059 104.611 382.096 108.647C382.943 111.933 382.786 115.386 383.226 118.752C383.665 122.118 384.905 125.642 387.698 127.484C382.355 127.412 374.658 131.532 369.307 131.453C367.393 131.453 367.793 127.19 365.957 126.69C364.026 126.058 362.218 125.091 360.614 123.832C352.987 118.236 347.237 110.41 344.138 101.408C342.93 97.8594 330.44 115.783 328.98 112.33C321.134 93.7158 336.041 84.4204 332.377 83.6504C329.349 83.0074 326.219 84.0235 323.119 83.8727C305.027 83.0074 308.887 52.7082 326.423 53.4861Z" fill="#25233A"/>
<path d="M305.255 121.268C301.379 121.268 297.55 120.475 293.769 119.625L280.329 116.688C279.698 116.495 279.029 116.462 278.383 116.593C277.66 116.873 277.065 117.413 276.712 118.109C274.437 121.975 276.288 127.246 279.701 130.127C283.114 133.009 287.633 134.096 291.995 134.954C297.817 136.12 303.842 137.113 309.656 135.89C316.835 134.374 326.956 132.263 332.581 127.508C333.319 126.889 330.008 123.65 330.44 122.793C330.854 121.789 331.041 120.704 330.989 119.617C331.036 117.307 339.227 101.614 336.716 100.384C334.362 99.2168 325.097 112.505 323.535 113.95C318.539 118.582 312.031 121.188 305.255 121.268V121.268Z" fill="#68E1FD"/>
<path d="M331.758 125.42C332.385 126.341 332.927 127.206 332.542 127.492C326.917 132.255 316.796 134.358 309.617 135.874C303.803 137.097 297.778 136.105 291.956 134.938C287.594 134.065 283.067 133.001 279.662 130.111C279.047 129.591 278.49 129.006 277.999 128.365C277.978 128.341 277.959 128.314 277.944 128.286C275.708 125.325 274.805 121.245 276.673 118.093C277.026 117.397 277.621 116.857 278.344 116.577C278.99 116.447 279.659 116.479 280.29 116.672L293.729 119.602C297.511 120.395 301.34 121.261 305.215 121.245C311.992 121.164 318.5 118.558 323.496 113.926C325.065 112.481 334.292 99.193 336.677 100.36C339.188 101.59 330.997 117.284 330.95 119.594C331.002 120.68 330.815 121.765 330.4 122.769C330.173 123.221 330.997 124.356 331.711 125.396L331.758 125.42Z" fill="url(#paint14_linear_3_18)"/>
<path d="M276.712 118.117C276.712 118.117 277.496 116.402 278.383 116.601C279.27 116.799 281.819 124.626 277.983 128.309C277.983 128.309 274.97 121.896 276.712 118.117Z" fill="url(#paint15_linear_3_18)"/>
<path opacity="0.17" d="M332.581 127.516C326.956 132.278 316.835 134.382 309.656 135.898C303.842 137.121 297.817 136.128 291.995 134.962C287.633 134.088 283.106 133.025 279.701 130.135C279.086 129.615 278.529 129.03 278.038 128.389C278.017 128.364 277.998 128.338 277.983 128.309L278.328 122.062C278.775 122.467 281.184 123.65 291.988 126.912C307.781 131.715 327.442 121.213 327.442 121.213L331.75 125.428C332.37 126.365 332.927 127.23 332.581 127.516Z" fill="url(#paint16_linear_3_18)"/>
<path d="M375.396 196.759C375.348 197.623 374.974 198.435 374.352 199.029C373.64 199.443 372.806 199.586 371.999 199.434C369.802 199.267 367.291 199.164 364.725 198.878C362.017 198.619 359.348 198.043 356.77 197.164C347.747 193.901 339.439 188.09 336.442 186.844C334.292 185.979 325.583 188.265 323.967 186.582C320.122 182.613 327.144 176.477 328.345 171.04C330.44 161.514 334.943 151.988 332.942 142.463C332.305 139.923 331.519 137.423 330.589 134.977C328.643 129.159 326.266 121.03 328.086 114.926C329.506 110.163 331.781 103.297 335.665 100.05C340.137 96.3194 341.698 98.042 347.488 98.2007C351.529 98.3119 362.568 102.844 363.784 104.607C376.408 123.039 373.685 158.402 375.678 185.217C376.044 189.062 375.949 192.937 375.396 196.759V196.759Z" fill="#68E1FD"/>
<path d="M375.396 196.759C375.345 197.62 374.975 198.431 374.36 199.029C373.693 199.529 370.9 195.06 370.076 194.965C364.953 194.576 361.768 198.283 356.738 197.164C356.291 196.1 356.589 195.044 357.97 193.988C365.11 188.741 362.536 134.954 360.654 120.308C364.984 121.816 363.007 103.519 363.745 104.63C376.369 123.055 373.646 158.41 375.639 185.233C376.02 189.07 375.938 192.941 375.396 196.759V196.759Z" fill="url(#paint17_linear_3_18)"/>
<path d="M357.986 194.02C356.605 195.044 356.307 196.1 356.754 197.195C349.873 195.663 342.875 189.765 336.426 186.876C334.3 185.939 325.567 188.297 323.951 186.614C320.107 182.645 327.129 176.509 328.329 171.071C330.424 161.546 334.927 152.02 332.927 142.495C332.285 139.958 331.499 137.462 330.573 135.017C328.627 129.199 326.25 121.07 328.062 114.966C329.49 110.203 331.766 103.337 335.649 100.09C340.121 96.3591 341.683 98.0817 347.473 98.2404C348.979 98.2404 361.179 103.749 363.768 104.646C365.643 119.308 365.126 188.773 357.986 194.02V194.02Z" fill="url(#paint18_linear_3_18)"/>
<path opacity="0.17" d="M333.86 137.954C333.86 137.954 336.214 148.924 334.245 156.077C332.275 163.229 327.011 185.995 327.003 186.614C326.995 187.233 330.424 187.59 330.424 187.59L348.759 174.516L354.361 180.073C354.361 180.073 366.216 171.762 374.58 159.268L374.305 152.004L334.99 173.627C335.88 171.691 336.412 169.606 336.559 167.475C336.944 163.673 339.172 145.749 333.86 137.954V137.954Z" fill="url(#paint19_linear_3_18)"/>
<path d="M331.169 116.966L328.431 121.856L333.86 137.954L334.99 137.589L334.378 120.721L331.169 116.966V116.966Z" fill="#68E1FD"/>
<path d="M331.169 116.966L328.431 121.856L333.86 137.954L334.99 137.589L334.378 120.721L331.169 116.966V116.966Z" fill="url(#paint20_linear_3_18)"/>
<path d="M334.402 117.577C334.284 123.928 333.986 134.954 334.739 134.009C337.438 130.643 350.689 98.3754 346.351 97.7165C341.133 96.9227 334.825 95.4621 334.402 117.577Z" fill="#25233A"/>
<path d="M346.319 98.4944C346.319 98.4944 342.067 104.361 338.583 106.647C338.403 106.764 338.194 106.827 337.98 106.829C337.765 106.83 337.555 106.77 337.373 106.655C337.191 106.541 337.046 106.376 336.953 106.18C336.86 105.985 336.824 105.767 336.85 105.551C337.019 104.29 337.019 103.011 336.85 101.749C336.73 100.786 336.368 99.8703 335.798 99.0898C335.521 98.7338 335.177 98.437 334.786 98.2166C331.232 96.2083 338.709 80.9991 342.161 85.3491L346.319 98.4944Z" fill="url(#paint21_linear_3_18)"/>
<path d="M310.3 70.5924C308.934 74.8472 309.774 80.2768 313.571 82.5629C315.588 83.7774 318.169 83.9838 319.848 85.6111C322.727 81.9596 328.847 82.2295 331.46 78.3875C331.998 77.5256 332.354 76.5597 332.504 75.5511C332.654 74.5426 332.595 73.5135 332.33 72.5293C331.786 70.5642 330.788 68.7579 329.42 67.2585C327.737 65.1996 325.544 63.6299 323.065 62.71C316.725 60.5588 312.261 64.5199 310.3 70.5924V70.5924Z" fill="#25233A"/>
<path d="M316.851 76.0776C316.592 76.8317 323.48 101.36 334.794 98.2166C339.964 96.7798 340.765 90.993 341.071 86.3096C341.288 82.9224 341.175 79.5217 340.733 76.1569C340.733 76.1569 324.155 54.3751 316.851 76.0776V76.0776Z" fill="url(#paint22_linear_3_18)"/>
<path d="M353.718 88.4291C353.545 88.8215 353.295 89.1745 352.984 89.4665C352.672 89.7584 352.306 89.9834 351.906 90.1278C351.104 90.4085 350.258 90.5324 349.411 90.4929C348.659 90.519 347.91 90.3838 347.214 90.096C346.574 89.7419 345.998 89.2802 345.511 88.7307C345.762 89.072 344.342 87.7861 340.976 85.111C340.976 82.2692 342.381 76.1728 339.407 76.9825C338.246 77.3 338.23 80.4752 338.113 80.6975C338.246 79.9831 337.281 78.2288 336.842 76.9269C334.394 77.0381 331.797 77.5143 328.408 73.1326C322.876 65.9884 316.945 66.5203 316.945 66.5203C320.468 64.1865 325.042 58.8918 334.551 60.3763C338.787 61.043 340.561 64.5358 341.196 68.2031C342.295 68.7577 343.344 69.4056 344.334 70.14C347.669 72.7039 349.615 76.7126 350.846 80.761C351.356 82.4359 351.772 84.1426 352.376 85.7778C352.71 86.7158 353.161 87.6068 353.718 88.4291V88.4291Z" fill="#25233A"/>
<path d="M258.878 117.958C259.796 119.546 265.249 119.316 266.536 120.006C266.112 120.006 260.777 119.768 259.388 119.8C258.368 119.8 258.376 121.014 259.13 121.388C260.95 122.324 265.179 122.038 266.63 122.467C266.002 122.229 260.769 122.801 260.102 122.856C259.2 123.015 258.243 124.396 261.177 124.674C262.37 124.785 265.281 124.674 266.724 124.991C267.509 125.142 261.852 125.412 261.758 126.23C261.562 127.881 267.391 127.46 267.83 127.5C270.576 127.762 275.888 128.492 277.983 128.294C277.983 126.071 279.403 123.078 277.528 119.562C277.245 119.03 274.287 117.339 273.982 116.847C272.561 114.593 270.843 112.83 269.125 112.434C266.261 111.783 268.788 114.212 268.897 116.172C269.047 118.665 268.466 117.942 264.975 117.292C264.245 117.172 257.984 116.45 258.878 117.958V117.958Z" fill="url(#paint23_linear_3_18)"/>
<path d="M339.101 164.975C336.952 164.799 334.789 165.055 332.738 165.729C332.618 165.756 332.51 165.823 332.432 165.92C332.386 166.01 332.37 166.113 332.385 166.213C332.488 166.614 332.714 166.97 333.032 167.231C333.35 167.491 333.742 167.641 334.151 167.658C334.967 167.671 335.782 167.62 336.591 167.507C336.999 167.507 337.532 167.642 337.54 168.063C337.531 168.192 337.491 168.318 337.422 168.428C336.745 169.366 335.751 170.021 334.629 170.27C332.409 170.983 330.094 171.349 327.764 171.357C326.737 171.303 325.707 171.348 324.689 171.492C324.367 171.556 323.998 171.706 323.951 172.04C323.956 172.166 323.99 172.29 324.051 172.401C324.113 172.511 324.2 172.605 324.304 172.675C325.748 173.897 327.811 173.913 329.694 173.858L325.858 174.183C325.215 174.163 324.583 174.358 324.061 174.739C324.226 175.041 324.451 175.306 324.72 175.517C324.99 175.729 325.3 175.883 325.63 175.969C326.293 176.146 326.977 176.232 327.662 176.223L330.753 176.295C329.299 176.25 327.852 176.52 326.509 177.088C326.4 177.122 326.304 177.189 326.234 177.279C326.093 177.525 326.368 177.811 326.619 177.946C328.768 179.089 331.326 178.795 333.751 178.47L330.157 179.319C329.992 179.359 329.796 179.438 329.788 179.605C329.79 179.643 329.799 179.68 329.815 179.714C329.831 179.748 329.854 179.778 329.883 179.803C330.115 180.004 330.417 180.104 330.722 180.081C333.308 180.322 335.915 180.019 338.38 179.192C339.477 178.761 340.541 178.248 341.565 177.66C342.117 177.385 342.642 177.058 343.134 176.684C343.62 176.25 344.057 175.763 344.436 175.231C345.354 174.032 350.038 172.111 350.846 170.841C350.953 170.696 351.026 170.527 351.058 170.349C351.058 170.008 351.294 168.984 351.058 168.761C350.227 167.968 349.097 167.92 348.705 166.84C348.516 166.364 346.272 165.435 346.076 164.967C345.802 164.324 343.722 165.293 343.079 165.332C341.746 165.311 340.417 165.192 339.101 164.975V164.975Z" fill="url(#paint24_linear_3_18)"/>
<path d="M352.62 175.247L341.486 162.292C341.486 162.292 363.243 149.591 362.348 141.312C361.454 133.033 352.745 123.182 351.639 115.117C350.533 107.052 363.753 104.654 363.753 104.654C372.712 114.37 374.619 131.143 378.66 144.598C382.229 156.299 352.62 175.247 352.62 175.247V175.247Z" fill="#68E1FD"/>
<path d="M352.619 175.247L346.343 167.912L341.51 162.292C341.51 162.292 363.266 149.591 362.372 141.312C362.24 140.171 361.996 139.046 361.642 137.954C359.288 130.453 352.619 122.118 351.662 115.14C350.533 107.107 363.753 104.654 363.753 104.654C372.712 114.37 374.619 131.143 378.66 144.598C382.229 156.299 352.619 175.247 352.619 175.247V175.247Z" fill="url(#paint25_linear_3_18)"/>
<path d="M347.535 113.513L349.489 120.53C349.489 120.53 337.862 135.62 334.99 137.589C332.119 139.558 335.453 132.898 335.453 132.898C335.453 132.898 342.334 119.141 342.859 115.244C343.385 111.346 347.535 113.513 347.535 113.513V113.513Z" fill="#68E1FD"/>
<path d="M347.535 113.513L349.489 120.53C349.489 120.53 337.862 135.62 334.99 137.589C332.119 139.558 335.453 132.898 335.453 132.898C335.453 132.898 342.334 119.141 342.859 115.244C343.385 111.346 347.535 113.513 347.535 113.513V113.513Z" fill="url(#paint26_linear_3_18)"/>
<path d="M345.519 95.9543C345.519 95.9543 348.289 96.6131 349.489 97.7165C350.689 98.8199 352.769 108.544 352.769 108.544L341.604 119.117C341.604 119.117 346.249 100.566 345.519 95.9543Z" fill="#68E1FD"/>
<path d="M345.519 95.9543C345.519 95.9543 348.289 96.6131 349.489 97.7165C350.689 98.8199 352.769 108.544 352.769 108.544L341.604 119.117C341.604 119.117 346.249 100.566 345.519 95.9543Z" fill="url(#paint27_linear_3_18)"/>
<path d="M336.857 101.749C334.26 107.679 334.245 121.848 334.245 121.848L327.882 111.751L335.806 99.0898C336.376 99.8703 336.738 100.786 336.857 101.749V101.749Z" fill="#68E1FD"/>
<path d="M336.857 101.749C334.26 107.679 334.245 121.848 334.245 121.848L327.882 111.751L335.806 99.0898C336.376 99.8703 336.738 100.786 336.857 101.749V101.749Z" fill="url(#paint28_linear_3_18)"/>
<path d="M368.013 267.51C368.013 267.51 362.568 252.848 360.238 241.823C357.908 230.797 356.754 197.156 356.754 197.156C359.332 198.035 362.002 198.611 364.71 198.87C364.983 200 365.12 201.16 365.118 202.323C365.016 221.2 362.513 241.299 367.856 258.111C368.939 261.517 370.422 265.224 368.013 267.51V267.51Z" fill="url(#paint29_linear_3_18)"/>
<path d="M278.336 121.848V122.062C278.124 121.872 278.336 121.848 278.336 121.848Z" fill="url(#paint30_linear_3_18)"/>
<path d="M80.3405 109.997V264.827C80.3405 278.139 71.1061 288.942 59.6905 288.942C48.2749 288.942 39.0405 278.147 39.0405 264.835V110.044L80.3405 109.997Z" fill="url(#paint31_linear_3_18)"/>
<path d="M92.0385 107.067C92.0395 107.962 91.8661 108.848 91.5282 109.675C91.1903 110.502 90.6945 111.253 90.0692 111.886C89.4439 112.518 88.7014 113.02 87.8842 113.362C87.067 113.704 86.1912 113.879 85.3069 113.878H33.0385C32.1346 113.909 31.2338 113.756 30.3896 113.428C29.5455 113.099 28.7753 112.603 28.125 111.967C27.4747 111.331 26.9575 110.569 26.6043 109.727C26.2511 108.884 26.069 107.979 26.069 107.063C26.069 106.148 26.2511 105.243 26.6043 104.4C26.9575 103.558 27.4747 102.796 28.125 102.16C28.7753 101.524 29.5455 101.028 30.3896 100.699C31.2338 100.371 32.1346 100.218 33.0385 100.249H85.3069C86.1915 100.249 87.0675 100.425 87.8848 100.768C88.702 101.111 89.4444 101.613 90.0696 102.246C90.6948 102.88 91.1905 103.631 91.5284 104.459C91.8662 105.286 92.0395 106.172 92.0385 107.067V107.067Z" fill="#68E1FD"/>
<path d="M92.0385 107.067C92.0396 107.962 91.8661 108.848 91.5282 109.675C91.1903 110.502 90.6945 111.253 90.0692 111.886C89.4439 112.518 88.7014 113.02 87.8842 113.362C87.067 113.704 86.1912 113.879 85.3069 113.878H33.0385C32.1346 113.909 31.2338 113.756 30.3896 113.428C29.5455 113.099 28.7753 112.602 28.125 111.967C27.4747 111.331 26.9575 110.569 26.6043 109.727C26.2511 108.884 26.069 107.979 26.069 107.063C26.069 106.148 26.2511 105.243 26.6043 104.4C26.9575 103.558 27.4747 102.796 28.125 102.16C28.7753 101.524 29.5455 101.028 30.3896 100.699C31.2338 100.371 32.1346 100.218 33.0385 100.249H85.3069C86.1915 100.249 87.0675 100.425 87.8848 100.768C88.702 101.111 89.4444 101.613 90.0696 102.246C90.6948 102.88 91.1905 103.631 91.5284 104.459C91.8662 105.286 92.0396 106.172 92.0385 107.067V107.067Z" fill="url(#paint32_linear_3_18)"/>
<path d="M186.494 54.3196V133.183C186.496 133.821 186.39 134.455 186.18 135.057C185.097 138.168 180.248 146.218 169.939 152.036C145.492 165.832 137.52 200.378 136.642 201.402C133.582 204.967 126.183 211.507 118.102 203.347C107.495 192.655 130.13 161.601 137.371 153.949C147.571 143.185 169.052 140.208 169.351 130.08C169.594 121.697 169.437 71.4815 169.351 54.3355C169.347 53.5833 169.491 52.8379 169.774 52.1422C170.057 51.4465 170.472 50.8141 170.997 50.2815C171.522 49.7489 172.146 49.3265 172.833 49.0387C173.52 48.7508 174.256 48.6032 174.999 48.6042H180.813C181.558 48.6001 182.296 48.7448 182.985 49.0301C183.674 49.3155 184.3 49.7358 184.828 50.267C185.356 50.7981 185.775 51.4296 186.061 52.125C186.346 52.8205 186.494 53.5663 186.494 54.3196V54.3196Z" fill="url(#paint33_linear_3_18)"/>
<path d="M127.988 242.426C134.981 242.426 140.651 236.69 140.651 229.614C140.651 222.538 134.981 216.802 127.988 216.802C120.994 216.802 115.325 222.538 115.325 229.614C115.325 236.69 120.994 242.426 127.988 242.426Z" fill="url(#paint34_linear_3_18)"/>
<path d="M366.216 152.036C364.341 157.386 346.319 167.912 346.319 167.912L341.486 162.292C341.486 162.292 363.243 149.591 362.348 141.312C362.217 140.171 361.972 139.046 361.619 137.954C361.619 137.954 368.091 146.686 366.216 152.036V152.036Z" fill="url(#paint35_linear_3_18)"/>
<path d="M338.325 81.9041C338.325 81.9041 339.894 82.039 339.454 80.753C339.015 79.4671 339.399 77.7684 340.286 77.9033C341.173 78.0383 340.561 82.9757 339.964 83.3567C339.368 83.7377 338.325 81.9041 338.325 81.9041Z" fill="url(#paint36_linear_3_18)"/>
<path opacity="0.25" d="M153.62 23.8457C160.128 23.8457 165.404 18.5076 165.404 11.9228C165.404 5.33804 160.128 0 153.62 0C147.112 0 141.836 5.33804 141.836 11.9228C141.836 18.5076 147.112 23.8457 153.62 23.8457Z" fill="#68E1FD"/>
<path opacity="0.25" d="M80.3405 63.7975C85.2196 63.7975 89.1748 59.7958 89.1748 54.8594C89.1748 49.923 85.2196 45.9212 80.3405 45.9212C75.4615 45.9212 71.5062 49.923 71.5062 54.8594C71.5062 59.7958 75.4615 63.7975 80.3405 63.7975Z" fill="#68E1FD"/>
</g>
<defs>
<linearGradient id="paint0_linear_3_18" x1="59.3453" y1="67.0124" x2="59.795" y2="225.7" gradientUnits="userSpaceOnUse">
<stop stop-color="white" stop-opacity="0"/>
<stop offset="0.97" stop-color="white"/>
</linearGradient>
<linearGradient id="paint1_linear_3_18" x1="59.1962" y1="159.926" x2="65.2999" y2="464.337" gradientUnits="userSpaceOnUse">
<stop stop-opacity="0"/>
<stop offset="0.97"/>
</linearGradient>
<linearGradient id="paint2_linear_3_18" x1="184.791" y1="36.0781" x2="192.318" y2="60.7642" gradientUnits="userSpaceOnUse">
<stop stop-color="white" stop-opacity="0"/>
<stop offset="0.97" stop-color="white"/>
</linearGradient>
<linearGradient id="paint3_linear_3_18" x1="185.929" y1="53.367" x2="186.836" y2="35.2615" gradientUnits="userSpaceOnUse">
<stop stop-color="white" stop-opacity="0"/>
<stop offset="0.97" stop-color="white"/>
</linearGradient>
<linearGradient id="paint4_linear_3_18" x1="187.819" y1="173.945" x2="95.2301" y2="125.222" gradientUnits="userSpaceOnUse">
<stop stop-color="white" stop-opacity="0"/>
<stop offset="0.97" stop-color="white"/>
</linearGradient>
<linearGradient id="paint5_linear_3_18" x1="207.034" y1="101.59" x2="251.099" y2="-134.238" gradientUnits="userSpaceOnUse">
<stop stop-color="white" stop-opacity="0"/>
<stop offset="0.97" stop-color="white"/>
</linearGradient>
<linearGradient id="paint6_linear_3_18" x1="-227.613" y1="180.129" x2="828.767" y2="156.547" gradientUnits="userSpaceOnUse">
<stop stop-color="#01447B" stop-opacity="0"/>
<stop offset="0.97" stop-color="white"/>
</linearGradient>
<linearGradient id="paint7_linear_3_18" x1="197.352" y1="226.677" x2="63.5095" y2="-20.329" gradientUnits="userSpaceOnUse">
<stop stop-opacity="0"/>
<stop offset="0.97"/>
</linearGradient>
<linearGradient id="paint8_linear_3_18" x1="176.388" y1="217.247" x2="448.732" y2="398.017" gradientUnits="userSpaceOnUse">
<stop stop-color="#01447B" stop-opacity="0"/>
<stop offset="0.97"/>
</linearGradient>
<linearGradient id="paint9_linear_3_18" x1="315.721" y1="273.908" x2="327.646" y2="273.908" gradientUnits="userSpaceOnUse">
<stop stop-color="#ECC4D7"/>
<stop offset="0.42" stop-color="#EFD4D1"/>
<stop offset="1" stop-color="#F2EAC9"/>
</linearGradient>
<linearGradient id="paint10_linear_3_18" x1="360.544" y1="275.337" x2="372.603" y2="275.337" gradientUnits="userSpaceOnUse">
<stop stop-color="#ECC4D7"/>
<stop offset="0.42" stop-color="#EFD4D1"/>
<stop offset="1" stop-color="#F2EAC9"/>
</linearGradient>
<linearGradient id="paint11_linear_3_18" x1="320.295" y1="224.883" x2="345.054" y2="228.669" gradientUnits="userSpaceOnUse">
<stop stop-opacity="0"/>
<stop offset="0.97"/>
</linearGradient>
<linearGradient id="paint12_linear_3_18" x1="323.935" y1="235.25" x2="344.829" y2="235.25" gradientUnits="userSpaceOnUse">
<stop stop-opacity="0"/>
<stop offset="0.97"/>
</linearGradient>
<linearGradient id="paint13_linear_3_18" x1="343.762" y1="227.828" x2="374.463" y2="224.516" gradientUnits="userSpaceOnUse">
<stop stop-opacity="0"/>
<stop offset="0.97"/>
</linearGradient>
<linearGradient id="paint14_linear_3_18" x1="306.651" y1="136.319" x2="306.499" y2="117.998" gradientUnits="userSpaceOnUse">
<stop stop-color="white" stop-opacity="0"/>
<stop offset="0.97" stop-color="white"/>
</linearGradient>
<linearGradient id="paint15_linear_3_18" x1="285.311" y1="120.205" x2="254.872" y2="129.397" gradientUnits="userSpaceOnUse">
<stop stop-opacity="0"/>
<stop offset="0.97"/>
</linearGradient>
<linearGradient id="paint16_linear_3_18" x1="307.765" y1="128.397" x2="381.433" y2="173.665" gradientUnits="userSpaceOnUse">
<stop stop-opacity="0"/>
<stop offset="0.97"/>
</linearGradient>
<linearGradient id="paint17_linear_3_18" x1="350.007" y1="153.235" x2="374.716" y2="151.459" gradientUnits="userSpaceOnUse">
<stop stop-color="white" stop-opacity="0"/>
<stop offset="0.97" stop-color="white"/>
</linearGradient>
<linearGradient id="paint18_linear_3_18" x1="318.239" y1="145.765" x2="347.31" y2="147.308" gradientUnits="userSpaceOnUse">
<stop stop-color="white" stop-opacity="0"/>
<stop offset="0.97" stop-color="white"/>
</linearGradient>
<linearGradient id="paint19_linear_3_18" x1="320.42" y1="220.938" x2="389.92" y2="75.6893" gradientUnits="userSpaceOnUse">
<stop stop-opacity="0"/>
<stop offset="0.97"/>
</linearGradient>
<linearGradient id="paint20_linear_3_18" x1="328.431" y1="127.46" x2="334.99" y2="127.46" gradientUnits="userSpaceOnUse">
<stop stop-color="white" stop-opacity="0"/>
<stop offset="0.97" stop-color="white"/>
</linearGradient>
<linearGradient id="paint21_linear_3_18" x1="338.262" y1="93.8507" x2="345.388" y2="104.172" gradientUnits="userSpaceOnUse">
<stop stop-color="#ECC4D7"/>
<stop offset="0.42" stop-color="#EFD4D1"/>
<stop offset="1" stop-color="#F2EAC9"/>
</linearGradient>
<linearGradient id="paint22_linear_3_18" x1="319.644" y1="70.5369" x2="334.85" y2="86.7754" gradientUnits="userSpaceOnUse">
<stop stop-color="#ECC4D7"/>
<stop offset="0.42" stop-color="#EFD4D1"/>
<stop offset="1" stop-color="#F2EAC9"/>
</linearGradient>
<linearGradient id="paint23_linear_3_18" x1="258.588" y1="120.34" x2="278.493" y2="120.34" gradientUnits="userSpaceOnUse">
<stop stop-color="#ECC4D7"/>
<stop offset="0.42" stop-color="#EFD4D1"/>
<stop offset="1" stop-color="#F2EAC9"/>
</linearGradient>
<linearGradient id="paint24_linear_3_18" x1="323.951" y1="172.405" x2="351.145" y2="172.405" gradientUnits="userSpaceOnUse">
<stop stop-color="#ECC4D7"/>
<stop offset="0.42" stop-color="#EFD4D1"/>
<stop offset="1" stop-color="#F2EAC9"/>
</linearGradient>
<linearGradient id="paint25_linear_3_18" x1="357.272" y1="140.161" x2="368.123" y2="136.656" gradientUnits="userSpaceOnUse">
<stop stop-color="white" stop-opacity="0"/>
<stop offset="0.97" stop-color="white"/>
</linearGradient>
<linearGradient id="paint26_linear_3_18" x1="337.595" y1="124.761" x2="350.577" y2="128.28" gradientUnits="userSpaceOnUse">
<stop stop-color="white" stop-opacity="0"/>
<stop offset="0.97" stop-color="white"/>
</linearGradient>
<linearGradient id="paint27_linear_3_18" x1="343.832" y1="107.536" x2="355.005" y2="107.536" gradientUnits="userSpaceOnUse">
<stop stop-color="white" stop-opacity="0"/>
<stop offset="0.97" stop-color="white"/>
</linearGradient>
<linearGradient id="paint28_linear_3_18" x1="327.882" y1="110.465" x2="336.857" y2="110.465" gradientUnits="userSpaceOnUse">
<stop stop-color="white" stop-opacity="0"/>
<stop offset="0.97" stop-color="white"/>
</linearGradient>
<linearGradient id="paint29_linear_3_18" x1="356.754" y1="232.337" x2="369.307" y2="232.337" gradientUnits="userSpaceOnUse">
<stop stop-opacity="0"/>
<stop offset="0.97"/>
</linearGradient>
<linearGradient id="paint30_linear_3_18" x1="278.242" y1="121.951" x2="278.336" y2="121.951" gradientUnits="userSpaceOnUse">
<stop stop-opacity="0"/>
<stop offset="0.97"/>
</linearGradient>
<linearGradient id="paint31_linear_3_18" x1="57.5251" y1="199.386" x2="34.333" y2="199.603" gradientUnits="userSpaceOnUse">
<stop stop-color="#01447B" stop-opacity="0"/>
<stop offset="0.97" stop-color="white"/>
</linearGradient>
<linearGradient id="paint32_linear_3_18" x1="59.3923" y1="118.681" x2="59.0952" y2="103.488" gradientUnits="userSpaceOnUse">
<stop stop-color="white" stop-opacity="0"/>
<stop offset="0.97" stop-color="white"/>
</linearGradient>
<linearGradient id="paint33_linear_3_18" x1="141.326" y1="86.5398" x2="206.354" y2="344.994" gradientUnits="userSpaceOnUse">
<stop stop-color="white" stop-opacity="0"/>
<stop offset="0.97" stop-color="white"/>
</linearGradient>
<linearGradient id="paint34_linear_3_18" x1="112.563" y1="180.621" x2="151.374" y2="301.047" gradientUnits="userSpaceOnUse">
<stop stop-color="white" stop-opacity="0"/>
<stop offset="0.97" stop-color="white"/>
</linearGradient>
<linearGradient id="paint35_linear_3_18" x1="374.619" y1="154.941" x2="340.145" y2="151.668" gradientUnits="userSpaceOnUse">
<stop stop-color="white" stop-opacity="0"/>
<stop offset="0.97" stop-color="white"/>
</linearGradient>
<linearGradient id="paint36_linear_3_18" x1="339.039" y1="80.4673" x2="340.609" y2="80.7622" gradientUnits="userSpaceOnUse">
<stop stop-color="#ECC4D7"/>
<stop offset="0.42" stop-color="#EFD4D1"/>
<stop offset="1" stop-color="#F2EAC9"/>
</linearGradient>
<clipPath id="clip0_3_18">
<rect width="400" height="300" fill="white"/>
</clipPath>
</defs>
</svg>
