<svg width="448" height="384" viewBox="0 0 448 384" fill="none" xmlns="http://www.w3.org/2000/svg">
<path fill-rule="evenodd" clip-rule="evenodd" d="M80 79.92V48C80 21.488 101.488 0 128 0C177.184 0 270.816 0 320 0C346.512 0 368 21.488 368 48V79.92L427.344 121.248C440.512 130.416 448 144.704 448 159.712C448 159.712 448 277.168 448 335.424C448 348.16 442.944 360.368 433.936 369.376C424.944 378.368 412.736 383.424 400 383.424C322.512 383.424 125.488 383.424 48 383.424C35.264 383.424 23.056 378.368 14.064 369.376C5.05596 360.368 0 348.16 0 335.424V159.712C0 144.704 7.48801 130.416 20.656 121.248L80 79.92ZM303.168 281.456C292.912 285.36 281.84 287.424 270.56 287.424C244.656 287.424 203.344 287.424 177.44 287.424C166.16 287.424 155.088 285.36 144.832 281.456C144.656 281.6 144.48 281.728 144.288 281.856L44.8479 351.12C45.8719 351.328 46.928 351.424 48 351.424C125.488 351.424 322.512 351.424 400 351.424C401.072 351.424 402.128 351.328 403.152 351.12L303.712 281.856C303.536 281.728 303.376 281.616 303.2 281.488L303.168 281.456ZM32 321.072L114.56 263.568L32 206.08V321.072ZM333.44 263.568L416 321.072V206.08L333.44 263.568ZM336.384 222.528C336.128 221.408 336 220.224 336 219.024C336 219.024 336 105.184 336 48C336 39.152 328.832 32 320 32C270.816 32 177.184 32 128 32C119.168 32 112 39.152 112 48V219.024C112 220.224 111.872 221.408 111.616 222.528L144.288 245.28C153.776 251.888 165.456 255.424 177.44 255.424C203.344 255.424 244.656 255.424 270.56 255.424C282.544 255.424 294.224 251.888 303.712 245.28L336.384 222.528ZM208 79.504C208.112 70.768 215.248 63.712 224 63.712C232.832 63.712 240 70.88 240 79.712V79.8881C249.264 82.0321 258.128 85.792 265.168 90.704C272.4 95.76 274.176 105.744 269.12 112.992C264.064 120.224 254.08 122 246.832 116.944C239.2 111.616 227.76 108.752 218.208 110.08C212.848 110.832 208 113.392 208 119.824C208 121.264 209.056 121.92 210.128 122.544C211.872 123.552 213.872 124.32 216 125.024C222.88 127.328 230.784 128.864 237.952 130.96C257.744 136.736 272 147.2 272 167.824C272 188.848 260.656 200.96 244.944 206.512C243.36 207.072 241.696 207.552 240 207.952C239.872 216.672 232.752 223.712 224 223.712C215.168 223.712 208 216.544 208 207.712V207.456C198.8 205.376 190.032 201.808 183.056 197.088C175.728 192.144 173.792 182.192 178.736 174.88C183.68 167.552 193.632 165.616 200.944 170.56C208.656 175.76 220.224 178.672 229.856 177.36C235.168 176.64 240 174.192 240 167.824C240 166.384 238.944 165.728 237.872 165.104C236.128 164.096 234.128 163.328 232 162.624C225.12 160.304 217.216 158.784 210.048 156.688C190.256 150.912 176 140.448 176 119.824C176 109.424 179.04 101.248 183.76 94.896C189.488 87.184 197.984 82 208 79.504ZM80 118.912L38.9441 147.504C34.7041 150.464 32 154.88 32 159.712C32 164.544 34.7041 168.96 38.9441 171.92L80 200.512V118.912ZM368 118.912V200.512L409.056 171.92C413.296 168.96 416 164.544 416 159.712C416 154.88 413.296 150.464 409.056 147.504L368 118.912Z" fill="#FFFF00" fill-opacity="0.7"/>
</svg>
