<svg width="512" height="512" viewBox="0 0 512 512" fill="none" xmlns="http://www.w3.org/2000/svg">
<path d="M256 272C185.424 272 128 214.576 128 144C128 73.424 185.424 16 256 16C326.576 16 384 73.424 384 144C384 214.576 326.576 272 256 272ZM256 48C203.056 48 160 91.056 160 144C160 196.944 203.056 240 256 240C308.944 240 352 196.944 352 144C352 91.056 308.944 48 256 48Z" fill="#FFFF00"/>
<path d="M262.4 211.2H249.6C240.632 211.164 231.913 208.246 224.73 202.876C217.548 197.506 212.283 189.968 209.712 181.376C209.064 179.345 208.827 177.206 209.017 175.083C209.207 172.959 209.82 170.896 210.818 169.012C211.817 167.129 213.182 165.464 214.833 164.116C216.484 162.768 218.388 161.763 220.432 161.161C222.477 160.558 224.622 160.371 226.74 160.609C228.858 160.847 230.908 161.505 232.768 162.547C234.628 163.588 236.261 164.99 237.572 166.671C238.883 168.352 239.844 170.278 240.4 172.336C241.6 176.384 245.392 179.216 249.6 179.216H262.4C264.948 179.216 267.392 178.204 269.194 176.402C270.996 174.6 272.008 172.156 272.008 169.608C272.008 167.06 270.996 164.616 269.194 162.814C267.392 161.012 264.948 160 262.4 160H249.6C226.656 160 208 141.328 208 118.4C208 95.472 226.656 76.8 249.6 76.8H262.4C280.336 76.8 296.176 88.224 301.856 105.248C302.553 107.249 302.846 109.369 302.718 111.484C302.589 113.599 302.042 115.667 301.107 117.569C300.173 119.471 298.87 121.168 297.274 122.562C295.678 123.956 293.822 125.02 291.812 125.69C289.801 126.361 287.678 126.626 285.565 126.469C283.452 126.313 281.391 125.738 279.502 124.779C277.612 123.819 275.932 122.494 274.56 120.88C273.187 119.265 272.148 117.395 271.504 115.376C270.873 113.46 269.653 111.793 268.018 110.612C266.383 109.431 264.417 108.797 262.4 108.8H249.6C247.054 108.8 244.612 109.811 242.812 111.612C241.011 113.412 240 115.854 240 118.4C240 120.946 241.011 123.388 242.812 125.188C244.612 126.989 247.054 128 249.6 128H262.4C285.344 128 304 146.672 304 169.6C304 192.528 285.344 211.2 262.4 211.2V211.2Z" fill="#FFFF00"/>
<path d="M256 96C251.664 96 247.664 94.24 244.64 91.36C244 90.56 243.2 89.76 242.72 88.8C242.086 87.9838 241.598 87.0634 241.28 86.08C240.82 85.171 240.491 84.2013 240.304 83.1999C240.16 82.0799 240 81.12 240 80C240 75.84 241.744 71.68 244.64 68.64C250.56 62.72 261.28 62.72 267.36 68.64C270.24 71.68 272 75.84 272 80C272 81.12 271.84 82.0799 271.664 83.1999C271.497 84.2044 271.173 85.1763 270.704 86.08C270.379 87.0607 269.893 87.9801 269.264 88.8C268.624 89.76 267.984 90.56 267.344 91.36C264.32 94.24 260.16 96 256 96ZM256 224C251.664 224 247.664 222.24 244.64 219.36C244 218.56 243.2 217.76 242.72 216.8C242.086 215.984 241.598 215.063 241.28 214.08C240.82 213.171 240.491 212.201 240.304 211.2C240.16 210.08 240 209.12 240 208C240 203.84 241.744 199.68 244.64 196.64C250.56 190.72 261.28 190.72 267.36 196.64C270.24 199.68 272 203.84 272 208C272 209.12 271.84 210.08 271.664 211.2C271.497 212.204 271.173 213.176 270.704 214.08C270.379 215.061 269.893 215.98 269.264 216.8C268.624 217.76 267.984 218.56 267.344 219.36C264.32 222.24 260.16 224 256 224V224ZM288 496H32C27.7565 496 23.6869 494.314 20.6863 491.314C17.6857 488.313 16 484.243 16 480V336C16 331.76 17.68 327.68 20.688 324.688C24.432 320.928 58.448 288 96 288C127.104 288 167.232 311.504 180.72 320H256C263.003 320.011 269.92 321.551 276.265 324.515C282.611 327.478 288.232 331.792 292.735 337.155C297.239 342.519 300.516 348.801 302.338 355.563C304.159 362.326 304.481 369.404 303.28 376.304L429.536 323.696C436.829 320.649 444.762 319.454 452.629 320.216C460.495 320.978 468.052 323.674 474.624 328.064C481.206 332.44 486.603 338.376 490.332 345.345C494.062 352.313 496.009 360.096 496 368C496.001 370.797 495.268 373.545 493.876 375.971C492.484 378.396 490.48 380.414 488.064 381.824L296.064 493.824C293.615 495.248 290.833 495.999 288 496V496ZM48 464H283.664L461.904 360.032C460.661 357.889 458.942 356.061 456.88 354.688C454.698 353.206 452.179 352.296 449.554 352.042C446.929 351.788 444.282 352.197 441.856 353.232L294.176 414.768C292.218 415.581 290.12 416 288 416H160C155.757 416 151.687 414.314 148.686 411.314C145.686 408.313 144 404.243 144 400C144 395.756 145.686 391.687 148.686 388.686C151.687 385.686 155.757 384 160 384H256C260.12 383.816 264.01 382.049 266.86 379.069C269.71 376.089 271.3 372.124 271.3 368C271.3 363.876 269.71 359.911 266.86 356.931C264.01 353.95 260.12 352.184 256 352H176C172.848 352 169.744 351.056 167.12 349.328C154.88 341.168 118.192 320 96 320C78.56 320 58.448 334.08 48 343.024V464Z" fill="#FFFF00"/>
</svg>
