<svg width="434" height="437" viewBox="0 0 434 437" fill="none" xmlns="http://www.w3.org/2000/svg">
<path d="M134.354 160.708C168.791 140.825 180.59 96.7909 160.708 62.3538C140.825 27.9168 96.7909 16.1177 62.3538 36C27.9168 55.8823 16.1177 99.9168 36 134.354C55.8823 168.791 99.9168 180.59 134.354 160.708Z" fill="#A0E06E" stroke="#373449" stroke-linecap="round" stroke-linejoin="round"/>
<path d="M42.9282 130.354L153.779 66.3538" stroke="#373449" stroke-linecap="round" stroke-linejoin="round"/>
<path d="M375.191 151.772C393.936 133.027 393.936 102.635 375.191 83.8897C356.446 65.1446 326.054 65.1446 307.308 83.8897L205.485 185.713C186.74 204.458 186.74 234.85 205.485 253.595C224.23 272.341 254.622 272.341 273.367 253.595L375.191 151.772Z" fill="#FFDC7B" stroke="#373449" stroke-linecap="round" stroke-linejoin="round"/>
<path d="M255.271 135.933L323.143 203.82" stroke="#373449" stroke-linecap="round" stroke-linejoin="round"/>
<path d="M314.759 266.773C292.889 288.642 292.889 324.1 314.759 345.969C336.628 367.838 372.085 367.838 393.955 345.969C415.824 324.1 415.824 288.642 393.955 266.773C372.085 244.903 336.628 244.903 314.759 266.773Z" fill="#CDD7E0" stroke="#373449" stroke-width="1.00023" stroke-linecap="round" stroke-linejoin="round"/>
<path d="M388.305 272.429L320.422 340.311" stroke="#373449" stroke-linecap="round" stroke-linejoin="round"/>
<path d="M108.343 232.477C89.5974 213.732 59.2055 213.732 40.4603 232.477C21.7151 251.222 21.7151 281.614 40.4603 300.359L142.284 402.183C161.029 420.928 191.421 420.928 210.166 402.183C228.911 383.437 228.911 353.046 210.166 334.3L108.343 232.477Z" fill="#FF5855" stroke="#373449" stroke-linecap="round" stroke-linejoin="round"/>
<path d="M92.5035 352.396L160.39 284.524Z" fill="#FF5855"/>
<path d="M92.5035 352.396L160.39 284.524" stroke="#373449" stroke-linecap="round" stroke-linejoin="round"/>
</svg>
