<svg width="337" height="368" viewBox="0 0 337 368" fill="none" xmlns="http://www.w3.org/2000/svg">
<path d="M173.224 0.128002C156.679 -0.82797 140.309 3.94016 126.865 13.6311C113.422 23.3221 103.723 37.3452 99.4 53.344C94.4855 71.7893 97.085 91.4306 106.629 107.962C116.172 124.494 131.881 136.568 150.312 141.536C168.765 146.448 188.413 143.848 204.954 134.306C221.495 124.764 233.582 109.057 238.568 90.624C241.307 80.3015 241.72 69.4995 239.777 58.9981C237.833 48.4966 233.582 38.5577 227.33 29.8992C221.078 21.2407 212.981 14.0786 203.624 8.9301C194.268 3.7816 183.884 0.775199 173.224 0.128002V0.128002ZM172.264 16.096C173.336 16.16 174.44 16.496 175.528 16.624L146.968 123.248C134.58 118.01 124.505 108.466 118.605 96.3784C112.706 84.291 111.38 70.477 114.872 57.488C118.19 45.0274 125.716 34.098 136.174 26.5537C146.632 19.0095 159.377 15.3147 172.248 16.096H172.264ZM191 20.784C203.376 26.0148 213.442 35.5453 219.341 47.6168C225.24 59.6883 226.574 73.4861 223.096 86.464C219.616 99.4561 211.556 110.752 200.404 118.271C189.251 125.789 175.757 129.023 162.408 127.376L191 20.784ZM55.912 143.936C41.487 143.775 27.5865 149.339 17.256 159.408C12.1615 164.37 8.10091 170.293 5.30881 176.833C2.51671 183.374 1.04849 190.403 0.988976 197.515C0.929466 204.626 2.27985 211.679 4.9621 218.265C7.64435 224.852 11.6053 230.841 16.616 235.888L131.624 351.888C141.81 362.096 155.607 367.883 170.027 367.997C184.448 368.111 198.334 362.542 208.68 352.496C213.771 347.537 217.829 341.618 220.619 335.082C223.409 328.545 224.877 321.52 224.936 314.413C224.996 307.307 223.646 300.258 220.966 293.676C218.286 287.094 214.327 281.108 209.32 276.064L94.312 160.064C84.1482 149.822 70.3411 144.023 55.912 143.936V143.936ZM277.128 144.128C267.975 144.763 259.118 147.633 251.333 152.487C243.547 157.34 237.071 164.03 232.472 171.968C225.069 184.833 223.069 200.108 226.911 214.445C230.753 228.782 240.124 241.01 252.968 248.448C279.688 263.856 314.104 254.688 329.528 227.968C336.918 215.089 338.907 199.808 335.06 185.467C331.213 171.125 321.843 158.891 309 151.44C299.349 145.862 288.245 143.314 277.128 144.128V144.128ZM55.784 159.712C65.9833 159.81 75.7263 163.954 82.872 171.232L134.536 223.312L80.184 277.248L28.056 224.688C24.4865 221.15 21.6619 216.932 19.749 212.284C17.8361 207.636 16.8736 202.653 16.9184 197.627C16.9631 192.601 18.0142 187.635 20.0095 183.022C22.0049 178.409 24.9041 174.242 28.536 170.768C35.7965 163.622 45.5971 159.651 55.784 159.728V159.712ZM278.184 160C285.864 159.456 293.784 161.12 301 165.28C309.014 169.874 315.185 177.107 318.462 185.743C321.739 194.38 321.918 203.886 318.968 212.64L251 173.408C257.95 165.535 267.723 160.718 278.2 160H278.184ZM243 187.28L310.936 226.496C304.828 233.416 296.511 238.005 287.4 239.481C278.289 240.957 268.948 239.23 260.968 234.592C252.956 230.008 246.784 222.785 243.507 214.156C240.229 205.526 240.05 196.027 243 187.28ZM145.816 234.688L197.88 287.216C212.92 302.384 212.68 326.256 197.4 341.152C193.805 344.696 189.547 347.496 184.868 349.391C180.19 351.286 175.183 352.239 170.136 352.196C165.088 352.153 160.099 351.114 155.453 349.14C150.808 347.165 146.598 344.293 143.064 340.688L91.432 288.624L145.816 234.688V234.688Z" fill="white"/>
</svg>
