<svg width="344" height="343" viewBox="0 0 344 343" fill="none" xmlns="http://www.w3.org/2000/svg">
<g clip-path="url(#clip0_2_2)">
<path d="M340.414 80.8361V110.829C340.414 114.776 337.205 117.975 333.247 117.975H10.7533C6.79533 117.975 3.58713 114.775 3.58713 110.829V80.8361C3.58713 76.8896 6.796 73.6907 10.7533 73.6907H333.247C337.205 73.6907 340.414 76.8896 340.414 80.8361Z" fill="#1390A6"/>
<path opacity="0.5" d="M27.7377 117.979H10.7533C6.81213 117.979 3.58713 114.763 3.58713 110.833V80.8214C3.58713 76.891 6.81213 73.676 10.7533 73.676H27.7377C23.7602 73.676 20.5715 76.8916 20.5715 80.8214V110.833C20.5715 114.763 23.7602 117.979 27.7377 117.979Z" fill="#1390A6"/>
<path opacity="0.15" d="M340.414 80.8214V110.833C340.414 114.764 337.189 117.979 333.247 117.979H305.513C309.454 117.979 312.679 114.763 312.679 110.833V80.8214C312.679 76.891 309.454 73.676 305.513 73.676H333.247C337.189 73.6753 340.414 76.891 340.414 80.8214Z" fill="#1390A6"/>
<path d="M323.433 117.975H20.5668V339.423H323.433V117.975Z" fill="#A9EBF7"/>
<path opacity="0.5" d="M44.9733 117.979H20.5715V339.424H44.9733V117.979Z" fill="white"/>
<path opacity="0.15" d="M323.429 117.979H301.929V339.424H323.429V117.979Z" fill="black"/>
<path d="M196.402 261.576V168.009C196.402 164.063 193.193 160.864 189.236 160.864H49.2377C45.2797 160.864 42.0715 164.063 42.0715 168.009V261.576C42.0715 265.523 45.2803 268.722 49.2377 268.722H189.236C193.194 268.722 196.402 265.523 196.402 261.576Z" fill="#99E5FF"/>
<path d="M217.891 167.994V339.424H301.933V167.994C301.933 164.047 298.724 160.848 294.767 160.848H225.058C221.1 160.848 217.891 164.047 217.891 167.994Z" fill="#FAB280"/>
<path opacity="0.15" d="M301.929 167.998V339.424H284.873V167.998C284.873 164.032 281.648 160.853 277.707 160.853H294.763C298.74 160.853 301.929 164.032 301.929 167.998Z" fill="black"/>
<path d="M284.018 178.712H235.808V221.961H284.018V178.712Z" fill="#A5E0FA"/>
<path d="M172 100.901C198.954 100.901 220.804 79.114 220.804 52.2385C220.804 25.363 198.954 3.57605 172 3.57605C145.046 3.57605 123.196 25.363 123.196 52.2385C123.196 79.114 145.046 100.901 172 100.901Z" fill="#FE5155"/>
<path opacity="0.15" d="M220.804 52.2385C220.804 79.1064 198.946 100.901 172 100.901C169.599 100.901 167.198 100.722 164.905 100.365C188.482 96.9712 206.614 76.7128 206.614 52.2392C206.614 27.7649 188.483 7.50715 164.905 4.11266C167.198 3.75559 169.599 3.57672 172 3.57672C198.946 3.57605 220.804 25.3706 220.804 52.2385Z" fill="black"/>
<path d="M200.817 52.2244C200.817 55.9994 197.748 59.059 193.962 59.059H178.855V74.1449C178.855 77.92 175.786 80.9795 172.001 80.9795C168.215 80.9795 165.146 77.9193 165.146 74.1449V59.059H150.039C146.253 59.059 143.185 55.9988 143.185 52.2244C143.185 48.4494 146.254 45.3899 150.039 45.3899H165.146V30.326C165.146 26.551 168.215 23.4915 172.001 23.4915C175.787 23.4915 178.855 26.5517 178.855 30.326V45.3892H193.962C197.748 45.3892 200.817 48.4494 200.817 52.2244Z" fill="white"/>
<path d="M333.247 121.547C339.175 121.547 343.997 116.739 343.997 110.828V80.8355C343.997 74.9247 339.175 70.1167 333.247 70.1167H221.154C223.206 64.5282 224.384 58.523 224.384 52.2352C224.384 23.4359 200.885 0.00335693 172 0.00335693C143.116 0.00335693 119.616 23.4359 119.616 52.2352C119.616 58.5237 120.794 64.5282 122.846 70.1167H10.7535C4.82553 70.1167 0.003479 74.9247 0.003479 80.8355V110.828C0.003479 116.739 4.82553 121.547 10.7535 121.547H16.9838V335.851H3.58659C1.60792 335.851 0.003479 337.449 0.003479 339.424C0.003479 341.399 1.60792 342.997 3.58659 342.997C103.085 342.997 241.156 342.997 340.414 342.997C342.392 342.997 343.997 341.399 343.997 339.424C343.997 337.449 342.392 335.851 340.414 335.851H327.016V121.547H333.247ZM172 7.14874C196.933 7.14874 217.218 27.375 217.218 52.2352C217.218 77.0953 196.933 97.3216 172 97.3216C147.068 97.3216 126.782 77.0953 126.782 52.2352C126.782 27.375 147.068 7.14874 172 7.14874ZM7.1697 110.828V80.8355C7.1697 78.8639 8.77749 77.2628 10.7528 77.2628H126.04C134.946 93.4581 152.205 104.468 172 104.468C191.795 104.468 209.053 93.4581 217.96 77.2628H333.247C335.223 77.2628 336.831 78.8646 336.831 80.8355V110.828C336.831 112.799 335.223 114.401 333.247 114.401C220.955 114.401 111.875 114.401 10.7535 114.401C8.77817 114.401 7.1697 112.799 7.1697 110.828ZM221.475 335.851V167.994C221.475 166.022 223.083 164.421 225.058 164.421H294.767C296.742 164.421 298.35 166.023 298.35 167.994V335.851H221.475V335.851ZM319.85 335.851H305.517V167.994C305.517 162.083 300.695 157.275 294.767 157.275H225.058C219.13 157.275 214.308 162.083 214.308 167.994V335.851H24.15V121.547H319.85V335.851H319.85Z" fill="black"/>
<path d="M49.2383 272.293C52.3014 272.293 195.631 272.293 189.236 272.293C195.164 272.293 199.986 267.485 199.986 261.574V168.008C199.986 162.097 195.164 157.289 189.236 157.289H49.2383C43.3104 157.289 38.4883 162.097 38.4883 168.008V261.575C38.4883 267.485 43.3104 272.293 49.2383 272.293ZM115.635 265.148H84.245V164.434H115.635V265.148ZM122.802 164.434H154.228V265.148H122.802V164.434ZM192.819 168.008V261.575C192.819 263.547 191.211 265.148 189.236 265.148H161.394V164.434H189.236C191.211 164.434 192.819 166.036 192.819 168.008ZM45.6552 168.008C45.6552 166.036 47.263 164.435 49.2383 164.435H77.0788V265.148H49.2383C47.263 265.148 45.6552 263.547 45.6552 261.576V168.008ZM232.224 240.047C230.245 240.047 228.641 241.645 228.641 243.62V256.648C228.641 258.623 230.245 260.221 232.224 260.221C234.203 260.221 235.807 258.623 235.807 256.648V243.62C235.808 241.645 234.204 240.047 232.224 240.047ZM284.017 175.139H235.808C233.829 175.139 232.225 176.737 232.225 178.712V221.963C232.225 223.937 233.829 225.535 235.808 225.535H284.018C285.996 225.535 287.601 223.937 287.601 221.963V178.712C287.601 176.737 285.996 175.139 284.017 175.139ZM280.434 218.39H239.391V182.284H280.434V218.39ZM150.038 62.633H161.562V74.1436C161.562 79.8835 166.244 84.5515 172 84.5515C177.756 84.5515 182.438 79.8828 182.438 74.1436V62.633H193.962C199.718 62.633 204.4 57.9643 204.4 52.2251C204.4 46.4859 199.718 41.8172 193.962 41.8172H182.438V30.3274C182.438 24.5875 177.756 19.9195 172 19.9195C166.244 19.9195 161.562 24.5882 161.562 30.3274V41.8165H150.038C144.282 41.8165 139.6 46.4852 139.6 52.2244C139.6 57.9637 144.282 62.633 150.038 62.633ZM150.038 48.9626H165.145C167.124 48.9626 168.728 47.3648 168.728 45.3899V30.3274C168.728 28.5273 170.196 27.0649 172 27.0649C173.804 27.0649 175.272 28.5266 175.272 30.3274V45.3899C175.272 47.3648 176.876 48.9626 178.855 48.9626H193.962C195.766 48.9626 197.234 50.4244 197.234 52.2251C197.234 54.0259 195.766 55.4876 193.962 55.4876H178.855C176.876 55.4876 175.272 57.0854 175.272 59.0603V74.1436C175.272 75.9437 173.804 77.4061 172 77.4061C170.196 77.4061 168.728 75.9444 168.728 74.1436V59.0603C168.728 57.0854 167.124 55.4876 165.145 55.4876H150.038C148.234 55.4876 146.766 54.0259 146.766 52.2251C146.766 50.4244 148.234 48.9626 150.038 48.9626Z" fill="black"/>
</g>
<defs>
<clipPath id="clip0_2_2">
<rect width="344" height="343" fill="white"/>
</clipPath>
</defs>
</svg>
