<svg width="512" height="512" viewBox="0 0 512 512" fill="none" xmlns="http://www.w3.org/2000/svg">
<path d="M392 80H351.184C349.34 70.9678 344.433 62.8496 337.293 57.0186C330.153 51.1876 321.218 48.0018 312 48H304C304 35.2696 298.943 23.0606 289.941 14.0589C280.939 5.05713 268.73 0 256 0C243.27 0 231.061 5.05713 222.059 14.0589C213.057 23.0606 208 35.2696 208 48H200C190.782 48.0018 181.847 51.1876 174.707 57.0186C167.567 62.8496 162.66 70.9678 160.816 80H120C109.391 80 99.2172 84.2143 91.7157 91.7157C84.2143 99.2172 80 109.391 80 120V472C80 482.609 84.2143 492.783 91.7157 500.284C99.2172 507.786 109.391 512 120 512H392C402.609 512 412.783 507.786 420.284 500.284C427.786 492.783 432 482.609 432 472V120C432 109.391 427.786 99.2172 420.284 91.7157C412.783 84.2143 402.609 80 392 80ZM200 64H216C218.122 64 220.157 63.1571 221.657 61.6569C223.157 60.1566 224 58.1217 224 56V48C224 39.5131 227.371 31.3737 233.373 25.3726C239.374 19.3714 247.513 16 256 16C264.487 16 272.626 19.3714 278.627 25.3726C284.629 31.3737 288 39.5131 288 48V56C288 58.1217 288.843 60.1566 290.343 61.6569C291.843 63.1571 293.878 64 296 64H312C318.365 64 324.47 66.5286 328.971 71.0294C333.471 75.5303 336 81.6348 336 88C336 94.3652 333.471 100.47 328.971 104.971C324.47 109.471 318.365 112 312 112H200C193.635 112 187.53 109.471 183.029 104.971C178.529 100.47 176 94.3652 176 88C176 81.6348 178.529 75.5303 183.029 71.0294C187.53 66.5286 193.635 64 200 64V64ZM416 472C416 478.365 413.471 484.47 408.971 488.971C404.47 493.471 398.365 496 392 496H120C113.635 496 107.53 493.471 103.029 488.971C98.5286 484.47 96 478.365 96 472V120C96 113.635 98.5286 107.53 103.029 103.029C107.53 98.5286 113.635 96 120 96H160.816C162.66 105.032 167.567 113.15 174.707 118.981C181.847 124.812 190.782 127.998 200 128H312C321.218 127.998 330.153 124.812 337.293 118.981C344.433 113.15 349.34 105.032 351.184 96H392C398.365 96 404.47 98.5286 408.971 103.029C413.471 107.53 416 113.635 416 120V472ZM152 320H216C222.365 320 228.47 317.471 232.971 312.971C237.471 308.47 240 302.365 240 296V280C240 277.878 239.157 275.843 237.657 274.343C236.157 272.843 234.122 272 232 272C229.878 272 227.843 272.843 226.343 274.343C224.843 275.843 224 277.878 224 280V296C224 298.122 223.157 300.157 221.657 301.657C220.157 303.157 218.122 304 216 304H152C149.878 304 147.843 303.157 146.343 301.657C144.843 300.157 144 298.122 144 296V232C144 229.878 144.843 227.843 146.343 226.343C147.843 224.843 149.878 224 152 224H216C218.122 224 220.157 223.157 221.657 221.657C223.157 220.157 224 218.122 224 216C224 213.878 223.157 211.843 221.657 210.343C220.157 208.843 218.122 208 216 208H152C145.635 208 139.53 210.529 135.029 215.029C130.529 219.53 128 225.635 128 232V296C128 302.365 130.529 308.47 135.029 312.971C139.53 317.471 145.635 320 152 320ZM242.912 218.336L192 269.248L173.088 250.336C171.579 248.879 169.558 248.072 167.461 248.091C165.363 248.109 163.357 248.95 161.873 250.433C160.39 251.917 159.549 253.923 159.531 256.021C159.512 258.118 160.319 260.139 161.776 261.648L186.352 286.208C187.852 287.708 189.887 288.55 192.008 288.55C194.129 288.55 196.164 287.708 197.664 286.208L254.24 229.648C255.697 228.139 256.504 226.118 256.485 224.021C256.467 221.923 255.626 219.917 254.143 218.433C252.659 216.95 250.653 216.109 248.555 216.091C246.458 216.072 244.437 216.879 242.928 218.336H242.912ZM232 416C229.878 416 227.843 416.843 226.343 418.343C224.843 419.843 224 421.878 224 424V440C224 442.122 223.157 444.157 221.657 445.657C220.157 447.157 218.122 448 216 448H152C149.878 448 147.843 447.157 146.343 445.657C144.843 444.157 144 442.122 144 440V376C144 373.878 144.843 371.843 146.343 370.343C147.843 368.843 149.878 368 152 368H216C218.122 368 220.157 367.157 221.657 365.657C223.157 364.157 224 362.122 224 360C224 357.878 223.157 355.843 221.657 354.343C220.157 352.843 218.122 352 216 352H152C145.635 352 139.53 354.529 135.029 359.029C130.529 363.53 128 369.635 128 376V440C128 446.365 130.529 452.47 135.029 456.971C139.53 461.471 145.635 464 152 464H216C222.365 464 228.47 461.471 232.971 456.971C237.471 452.47 240 446.365 240 440V424C240 421.878 239.157 419.843 237.657 418.343C236.157 416.843 234.122 416 232 416ZM242.912 362.336L192 413.248L173.088 394.336C171.579 392.879 169.558 392.072 167.461 392.091C165.363 392.109 163.357 392.95 161.873 394.433C160.39 395.917 159.549 397.923 159.531 400.021C159.512 402.118 160.319 404.139 161.776 405.648L186.352 430.208C187.852 431.708 189.887 432.55 192.008 432.55C194.129 432.55 196.164 431.708 197.664 430.208L254.24 373.648C255.697 372.139 256.504 370.118 256.485 368.021C256.467 365.923 255.626 363.917 254.143 362.433C252.659 360.95 250.653 360.109 248.555 360.091C246.458 360.072 244.437 360.879 242.928 362.336H242.912ZM200 176H296C298.122 176 300.157 175.157 301.657 173.657C303.157 172.157 304 170.122 304 168C304 165.878 303.157 163.843 301.657 162.343C300.157 160.843 298.122 160 296 160H200C197.878 160 195.843 160.843 194.343 162.343C192.843 163.843 192 165.878 192 168C192 170.122 192.843 172.157 194.343 173.657C195.843 175.157 197.878 176 200 176ZM376 240H280C277.878 240 275.843 240.843 274.343 242.343C272.843 243.843 272 245.878 272 248C272 250.122 272.843 252.157 274.343 253.657C275.843 255.157 277.878 256 280 256H376C378.122 256 380.157 255.157 381.657 253.657C383.157 252.157 384 250.122 384 248C384 245.878 383.157 243.843 381.657 242.343C380.157 240.843 378.122 240 376 240ZM376 272H280C277.878 272 275.843 272.843 274.343 274.343C272.843 275.843 272 277.878 272 280C272 282.122 272.843 284.157 274.343 285.657C275.843 287.157 277.878 288 280 288H376C378.122 288 380.157 287.157 381.657 285.657C383.157 284.157 384 282.122 384 280C384 277.878 383.157 275.843 381.657 274.343C380.157 272.843 378.122 272 376 272ZM376 384H280C277.878 384 275.843 384.843 274.343 386.343C272.843 387.843 272 389.878 272 392C272 394.122 272.843 396.157 274.343 397.657C275.843 399.157 277.878 400 280 400H376C378.122 400 380.157 399.157 381.657 397.657C383.157 396.157 384 394.122 384 392C384 389.878 383.157 387.843 381.657 386.343C380.157 384.843 378.122 384 376 384ZM376 416H280C277.878 416 275.843 416.843 274.343 418.343C272.843 419.843 272 421.878 272 424C272 426.122 272.843 428.157 274.343 429.657C275.843 431.157 277.878 432 280 432H376C378.122 432 380.157 431.157 381.657 429.657C383.157 428.157 384 426.122 384 424C384 421.878 383.157 419.843 381.657 418.343C380.157 416.843 378.122 416 376 416Z" fill="white"/>
</svg>
