<svg width="512" height="512" viewBox="0 0 512 512" fill="none" xmlns="http://www.w3.org/2000/svg">
<g clip-path="url(#clip0_6_14)">
<path d="M473.08 263.6L446.78 289.9C446.594 290.086 446.374 290.233 446.131 290.334C445.888 290.435 445.628 290.487 445.365 290.487C445.102 290.487 444.842 290.435 444.599 290.334C444.356 290.233 444.136 290.086 443.95 289.9L417.65 263.6C417.372 263.32 417.183 262.965 417.106 262.578C417.03 262.191 417.069 261.79 417.22 261.426C417.371 261.061 417.626 260.75 417.953 260.53C418.281 260.31 418.666 260.192 419.06 260.19H471.67C472.064 260.192 472.449 260.31 472.777 260.53C473.104 260.75 473.359 261.061 473.51 261.426C473.66 261.79 473.7 262.191 473.624 262.578C473.547 262.965 473.358 263.32 473.08 263.6V263.6ZM242.92 472.26L216.62 446C216.434 445.814 216.287 445.594 216.186 445.351C216.085 445.108 216.033 444.848 216.033 444.585C216.033 444.322 216.085 444.062 216.186 443.819C216.287 443.576 216.434 443.356 216.62 443.17L242.92 416.87C243.2 416.588 243.557 416.396 243.947 416.317C244.336 416.239 244.74 416.279 245.107 416.431C245.474 416.584 245.787 416.842 246.007 417.173C246.226 417.504 246.342 417.893 246.34 418.29V470.89C246.333 471.283 246.209 471.665 245.986 471.988C245.763 472.312 245.449 472.562 245.084 472.709C244.719 472.855 244.319 472.89 243.934 472.81C243.55 472.731 243.197 472.539 242.92 472.26V472.26Z" fill="#676E87"/>
<path d="M328.07 35.5H183.93C176.557 35.5 170.58 41.477 170.58 48.85V157.45C170.58 164.823 176.557 170.8 183.93 170.8H328.07C335.443 170.8 341.42 164.823 341.42 157.45V48.85C341.42 41.477 335.443 35.5 328.07 35.5Z" fill="#FFC166"/>
<path d="M328.07 35.5H298.07C301.609 35.5 305.003 36.9051 307.506 39.4066C310.01 41.908 311.417 45.3011 311.42 48.84V157.45C311.417 160.989 310.01 164.382 307.506 166.883C305.003 169.385 301.609 170.79 298.07 170.79H328.07C331.609 170.79 335.003 169.385 337.506 166.883C340.01 164.382 341.417 160.989 341.42 157.45V48.84C341.417 45.3011 340.01 41.908 337.506 39.4066C335.003 36.9051 331.609 35.5 328.07 35.5V35.5Z" fill="#FFB74E"/>
<path d="M341.42 76.1L264.83 116.51C262.044 117.722 259.038 118.348 256 118.348C252.962 118.348 249.956 117.722 247.17 116.51L170.58 76.1V48.84C170.583 45.3011 171.99 41.908 174.494 39.4066C176.997 36.9051 180.391 35.5 183.93 35.5H328.07C331.609 35.5 335.003 36.9051 337.506 39.4066C340.01 41.908 341.417 45.3011 341.42 48.84V76.1Z" fill="#FFAE36"/>
<path d="M311.42 48.84V91.93L341.42 76.1V48.84C341.421 47.0882 341.076 45.3535 340.405 43.7352C339.734 42.117 338.75 40.6472 337.51 39.41C337.21 39.1 336.89 38.82 336.56 38.54C334.165 36.5833 331.163 35.5225 328.07 35.54H298.07C301.602 35.54 304.99 36.9396 307.492 39.4324C309.994 41.9252 311.407 45.308 311.42 48.84V48.84Z" fill="#FFA41F"/>
<path d="M264.11 100.11H247.89C244.024 100.11 240.89 103.244 240.89 107.11V123.33C240.89 127.196 244.024 130.33 247.89 130.33H264.11C267.976 130.33 271.11 127.196 271.11 123.33V107.11C271.11 103.244 267.976 100.11 264.11 100.11Z" fill="#676E87"/>
<path d="M264.11 100.11H251.48C253.337 100.11 255.117 100.847 256.43 102.16C257.743 103.473 258.48 105.253 258.48 107.11V123.33C258.48 125.187 257.743 126.967 256.43 128.28C255.117 129.592 253.337 130.33 251.48 130.33H264.11C265.967 130.33 267.747 129.592 269.06 128.28C270.373 126.967 271.11 125.187 271.11 123.33V107.11C271.11 105.253 270.373 103.473 269.06 102.16C267.747 100.847 265.967 100.11 264.11 100.11V100.11Z" fill="#595F74"/>
<path d="M379.78 504.5H488.83C492.979 504.505 496.96 502.863 499.899 499.934C502.837 497.005 504.492 493.029 504.5 488.88V476.24C504.49 466.556 501.1 457.18 494.914 449.729C488.729 442.279 480.136 437.221 470.62 435.43L434.3 428.54L398 435.43C388.484 437.221 379.891 442.279 373.706 449.729C367.52 457.18 364.13 466.556 364.12 476.24V488.88C364.128 493.027 365.782 497.002 368.718 499.93C371.654 502.859 375.633 504.503 379.78 504.5V504.5Z" fill="#FF6666"/>
<path d="M470.62 435.43L434.3 428.54L422.83 430.71L447.66 435.43C457.176 437.221 465.769 442.279 471.954 449.729C478.14 457.18 481.53 466.556 481.54 476.24V488.88C481.537 490.935 481.13 492.969 480.341 494.866C479.552 496.763 478.397 498.486 476.941 499.937C475.486 501.387 473.759 502.537 471.86 503.32C469.96 504.103 467.925 504.504 465.87 504.5H488.87C493.019 504.505 497 502.863 499.939 499.934C502.877 497.005 504.532 493.029 504.54 488.88V476.24C504.528 466.551 501.132 457.17 494.939 449.718C488.746 442.267 480.144 437.213 470.62 435.43V435.43Z" fill="#FF4E4E"/>
<path d="M434.81 452.78H433.81C431.856 452.781 429.92 452.397 428.114 451.65C426.308 450.903 424.667 449.807 423.285 448.425C421.903 447.043 420.807 445.402 420.06 443.596C419.313 441.79 418.929 439.854 418.93 437.9V422.12H449.68V437.9C449.681 439.854 449.298 441.788 448.551 443.594C447.804 445.399 446.709 447.039 445.328 448.421C443.947 449.803 442.308 450.899 440.503 451.647C438.698 452.395 436.764 452.78 434.81 452.78Z" fill="#FFCD85"/>
<path d="M436 422.12V437.9C435.999 440.719 435.197 443.479 433.686 445.859C432.176 448.238 430.02 450.139 427.47 451.34C429.451 452.28 431.617 452.769 433.81 452.77H434.81C436.763 452.77 438.696 452.385 440.5 451.638C442.305 450.891 443.944 449.795 445.325 448.415C446.705 447.034 447.801 445.395 448.548 443.591C449.295 441.786 449.68 439.853 449.68 437.9V422.12H436Z" fill="#FFC166"/>
<path d="M409.2 354.79L471.07 366.42V337.79C471.07 331.37 465.85 324.5 459.41 324.5H397.54V343.16C397.541 344.689 397.844 346.204 398.431 347.616C399.018 349.028 399.877 350.311 400.96 351.391C402.043 352.471 403.328 353.327 404.742 353.911C406.156 354.494 407.671 354.793 409.2 354.79V354.79Z" fill="#676E87"/>
<path d="M459.41 324.5H436C442.44 324.5 447.66 331.37 447.66 337.79V362L471.08 366.4V337.79C471.07 331.37 465.85 324.5 459.41 324.5V324.5Z" fill="#595F74"/>
<path d="M435.51 428.09H433.11C423.676 428.09 414.629 424.342 407.958 417.672C401.288 411.001 397.54 401.954 397.54 392.52V362.6C397.54 360.529 398.363 358.542 399.827 357.077C401.292 355.613 403.279 354.79 405.35 354.79H463.26C465.331 354.79 467.318 355.613 468.783 357.077C470.247 358.542 471.07 360.529 471.07 362.6V392.52C471.07 401.952 467.324 410.998 460.655 417.668C453.987 424.339 444.942 428.087 435.51 428.09V428.09Z" fill="#FFCD85"/>
<path d="M463.26 354.79H443.19C445.261 354.79 447.248 355.613 448.712 357.077C450.177 358.542 451 360.529 451 362.6V392.52C451.006 400.419 448.382 408.096 443.542 414.339C438.702 420.582 431.922 425.037 424.27 427C427.155 427.742 430.122 428.115 433.1 428.11H435.5C440.171 428.111 444.797 427.192 449.114 425.405C453.43 423.618 457.351 420.998 460.655 417.695C463.958 414.391 466.578 410.47 468.365 406.154C470.152 401.837 471.071 397.211 471.07 392.54V362.6C471.07 360.529 470.247 358.542 468.783 357.077C467.318 355.613 465.331 354.79 463.26 354.79V354.79Z" fill="#FFC166"/>
<path d="M135.66 142.88L137.92 105.76C137.953 105.231 137.774 104.711 137.424 104.313C137.073 103.915 136.579 103.673 136.05 103.64L98.92 101.38C98.5255 101.356 98.1327 101.45 97.7913 101.649C97.4499 101.848 97.1752 102.144 97.0019 102.499C96.8286 102.855 96.7644 103.253 96.8174 103.645C96.8705 104.037 97.0384 104.404 97.3 104.7L132.17 144.09C132.433 144.385 132.777 144.596 133.16 144.695C133.542 144.795 133.945 144.779 134.319 144.65C134.692 144.52 135.019 144.283 135.258 143.968C135.496 143.653 135.636 143.274 135.66 142.88V142.88Z" fill="#676E87"/>
<path d="M97.5 504.5C147.206 504.5 187.5 464.206 187.5 414.5C187.5 364.794 147.206 324.5 97.5 324.5C47.7944 324.5 7.5 364.794 7.5 414.5C7.5 464.206 47.7944 504.5 97.5 504.5Z" fill="#FFE966"/>
<path d="M97.5 324.5C92.474 324.499 87.4566 324.917 82.5 325.75C103.482 329.284 122.534 340.138 136.274 356.385C150.013 372.632 157.552 393.222 157.552 414.5C157.552 435.778 150.013 456.368 136.274 472.615C122.534 488.862 103.482 499.716 82.5 503.25C94.776 505.318 107.347 504.816 119.42 501.777C131.492 498.738 142.802 493.227 152.636 485.593C162.47 477.96 170.613 468.369 176.551 457.427C182.488 446.486 186.092 434.431 187.133 422.026C188.174 409.621 186.63 397.134 182.598 385.356C178.567 373.578 172.136 362.764 163.712 353.599C155.289 344.433 145.055 337.114 133.658 332.106C122.261 327.097 109.949 324.507 97.5 324.5V324.5Z" fill="#FFE236"/>
<path d="M472 428.06L462.27 426.21C467.347 422.184 471.448 417.062 474.267 411.229C477.086 405.395 478.55 398.999 478.55 392.52V337.79C478.55 325.54 468.45 317 459.39 317H397.54C395.551 317 393.643 317.79 392.237 319.197C390.83 320.603 390.04 322.511 390.04 324.5V343.16C390.028 346.814 391.07 350.393 393.04 353.47C391.083 356.111 390.031 359.313 390.04 362.6V392.52C390.04 398.999 391.504 405.395 394.323 411.229C397.143 417.062 401.244 422.184 406.32 426.21L396.59 428.06C385.359 430.184 375.22 436.157 367.919 444.951C360.618 453.746 356.612 464.81 356.59 476.24V488.88C356.603 495.02 359.053 500.903 363.401 505.238C367.749 509.573 373.64 512.005 379.78 512H488.83C494.966 512 500.852 509.566 505.196 505.231C509.54 500.897 511.987 495.016 512 488.88V476.24C511.976 464.811 507.969 453.747 500.668 444.953C493.368 436.16 483.23 430.186 472 428.06V428.06ZM405 332H459.37C461.09 332 463.53 335 463.53 337.79V347.31H409.2C408.656 347.313 408.116 347.208 407.612 347.002C407.108 346.795 406.65 346.492 406.263 346.108C405.877 345.724 405.57 345.268 405.36 344.766C405.15 344.263 405.041 343.725 405.04 343.18L405 332ZM405 392.52V362.6C404.999 362.56 405.005 362.52 405.02 362.482C405.034 362.445 405.056 362.41 405.084 362.381C405.112 362.352 405.146 362.329 405.183 362.314C405.22 362.298 405.26 362.29 405.3 362.29H463.22C463.302 362.29 463.381 362.323 463.439 362.381C463.497 362.439 463.53 362.518 463.53 362.6V392.52C463.522 399.962 460.562 407.097 455.3 412.36C450.037 417.622 442.902 420.582 435.46 420.59H433.06C425.62 420.579 418.487 417.618 413.227 412.356C407.967 407.094 405.008 399.96 405 392.52V392.52ZM442.14 435.07V437.9C442.137 439.854 441.36 441.727 439.978 443.108C438.597 444.49 436.724 445.267 434.77 445.27H433.77C431.816 445.267 429.943 444.49 428.562 443.108C427.18 441.727 426.403 439.854 426.4 437.9V435.07C428.607 435.416 430.837 435.59 433.07 435.59H435.47C437.717 435.591 439.96 435.417 442.18 435.07H442.14ZM497 488.88C496.989 491.039 496.124 493.106 494.592 494.628C493.061 496.15 490.989 497.003 488.83 497H379.83C377.67 497.005 375.597 496.153 374.065 494.631C372.533 493.108 371.668 491.04 371.66 488.88V476.24C371.678 468.305 374.462 460.625 379.533 454.521C384.603 448.417 391.643 444.273 399.44 442.8L411.63 440.48C412.269 445.927 414.884 450.95 418.979 454.597C423.075 458.245 428.366 460.263 433.85 460.27H434.85C440.322 460.246 445.596 458.22 449.677 454.574C453.758 450.928 456.362 445.915 457 440.48L469.19 442.8C476.993 444.266 484.04 448.409 489.116 454.513C494.192 460.617 496.981 468.301 497 476.24V488.88ZM369.51 109.8C391.401 126.712 409.197 148.341 421.574 173.08C433.951 197.819 440.591 225.031 441 252.69H414.2C412.718 252.691 411.269 253.132 410.037 253.956C408.805 254.78 407.844 255.951 407.277 257.321C406.71 258.69 406.562 260.197 406.85 261.651C407.139 263.105 407.852 264.441 408.9 265.49L440.03 296.62C440.727 297.317 441.554 297.87 442.464 298.247C443.374 298.624 444.35 298.818 445.335 298.818C446.32 298.818 447.296 298.624 448.206 298.247C449.117 297.87 449.944 297.317 450.64 296.62L481.77 265.49C482.818 264.441 483.531 263.105 483.82 261.651C484.109 260.197 483.96 258.69 483.393 257.321C482.826 255.951 481.866 254.78 480.633 253.956C479.401 253.132 477.952 252.691 476.47 252.69H456C455.595 222.751 448.435 193.29 435.054 166.506C421.673 139.721 402.416 116.303 378.72 98C377.15 96.7787 375.159 96.2311 373.185 96.4777C371.211 96.7243 369.416 97.7449 368.195 99.315C366.974 100.885 366.426 102.876 366.673 104.85C366.919 106.824 367.94 108.619 369.51 109.84V109.8ZM458.39 267.69L445.39 280.69L432.39 267.69H458.39ZM97.5 317C78.2164 317 59.3657 322.718 43.3319 333.432C27.2982 344.145 14.8013 359.373 7.42179 377.188C0.0422454 395.004 -1.88858 414.608 1.87348 433.521C5.63554 452.434 14.9215 469.807 28.5571 483.443C42.1928 497.079 59.5656 506.364 78.4787 510.127C97.3919 513.889 116.996 511.958 134.812 504.578C152.627 497.199 167.855 484.702 178.568 468.668C189.282 452.634 195 433.784 195 414.5C194.971 388.65 184.689 363.868 166.411 345.589C148.132 327.311 123.35 317.029 97.5 317V317ZM97.5 497C81.1831 497 65.2326 492.161 51.6655 483.096C38.0984 474.031 27.5242 461.146 21.28 446.071C15.0358 430.996 13.402 414.408 16.5853 398.405C19.7685 382.402 27.6259 367.702 39.1637 356.164C50.7016 344.626 65.4017 336.768 81.4051 333.585C97.4085 330.402 113.997 332.036 129.071 338.28C144.146 344.524 157.031 355.098 166.096 368.665C175.161 382.233 180 398.183 180 414.5C179.976 436.373 171.277 457.343 155.81 472.81C140.343 488.277 119.373 496.976 97.5 497V497ZM183.93 178.29H328.07C333.596 178.285 338.895 176.088 342.804 172.181C346.713 168.274 348.912 162.976 348.92 157.45V48.84C348.912 43.3136 346.713 38.016 342.804 34.1091C338.895 30.2023 333.596 28.0053 328.07 28H310.07V22.25C310.062 16.3566 307.72 10.7063 303.555 6.53621C299.391 2.3661 293.743 0.0158657 287.85 0L224.15 0C218.25 0.00529121 212.592 2.35086 208.419 6.52211C204.246 10.6934 201.898 16.3496 201.89 22.25V28H183.89C178.364 28.0053 173.065 30.2023 169.156 34.1091C165.248 38.016 163.048 43.3136 163.04 48.84V157.45C163.048 162.983 165.253 168.287 169.17 172.195C173.088 176.103 178.397 178.295 183.93 178.29V178.29ZM216.93 22.29C216.922 20.3662 217.678 18.518 219.032 17.1511C220.385 15.7843 222.226 15.0106 224.15 15H287.85C289.774 15 291.619 15.7635 292.98 17.1229C294.341 18.4822 295.107 20.3263 295.11 22.25V28H216.89L216.93 22.29ZM178.08 48.84C178.083 47.2902 178.7 45.8048 179.797 44.7099C180.894 43.615 182.38 43 183.93 43H328.07C329.62 43 331.106 43.615 332.203 44.7099C333.3 45.8048 333.917 47.2902 333.92 48.84V71.57L277.42 101.38C276.3 98.7786 274.442 96.5621 272.077 95.0037C269.712 93.4453 266.942 92.6132 264.11 92.61H247.89C245.058 92.6132 242.288 93.4453 239.923 95.0037C237.558 96.5621 235.701 98.7786 234.58 101.38L178.08 71.57V48.84ZM263.61 107.61V122.83H248.39V107.61H263.61ZM178.08 88.53L233.39 117.72V123.33C233.393 127.175 234.921 130.861 237.64 133.58C240.359 136.299 244.045 137.827 247.89 137.83H264.11C267.955 137.827 271.641 136.299 274.36 133.58C277.079 130.861 278.607 127.175 278.61 123.33V117.72L333.92 88.53V157.45C333.917 159 333.3 160.485 332.203 161.58C331.106 162.675 329.62 163.29 328.07 163.29H183.93C182.38 163.29 180.894 162.675 179.797 161.58C178.7 160.485 178.083 159 178.08 157.45V88.53ZM115.5 358H105V350.5C105 348.511 104.21 346.603 102.803 345.197C101.397 343.79 99.4892 343 97.5 343C95.5109 343 93.6033 343.79 92.1967 345.197C90.7902 346.603 90 348.511 90 350.5V358H79.5C74.8604 358.005 70.4123 359.851 67.1315 363.131C63.8508 366.412 62.0053 370.86 62 375.5V404.5C62.0053 409.14 63.8508 413.588 67.1315 416.869C70.4123 420.149 74.8604 421.995 79.5 422H90V456H79.5C78.837 456 78.2011 455.737 77.7323 455.268C77.2634 454.799 77 454.163 77 453.5V443.5C77 441.511 76.2099 439.603 74.8033 438.197C73.3968 436.79 71.4892 436 69.5 436C67.5109 436 65.6033 436.79 64.1967 438.197C62.7902 439.603 62 441.511 62 443.5V453.5C62.0053 458.14 63.8508 462.588 67.1315 465.869C70.4123 469.149 74.8604 470.995 79.5 471H90V478.5C90 480.489 90.7902 482.397 92.1967 483.803C93.6033 485.21 95.5109 486 97.5 486C99.4892 486 101.397 485.21 102.803 483.803C104.21 482.397 105 480.489 105 478.5V471H115.5C120.14 470.995 124.588 469.149 127.869 465.869C131.149 462.588 132.995 458.14 133 453.5V424.5C132.995 419.86 131.149 415.412 127.869 412.131C124.588 408.851 120.14 407.005 115.5 407H105V373H115.5C116.163 373 116.799 373.263 117.268 373.732C117.737 374.201 118 374.837 118 375.5V385.5C118 387.489 118.79 389.397 120.197 390.803C121.603 392.21 123.511 393 125.5 393C127.489 393 129.397 392.21 130.803 390.803C132.21 389.397 133 387.489 133 385.5V375.5C132.995 370.86 131.149 366.412 127.869 363.131C124.588 359.851 120.14 358.005 115.5 358V358ZM90 407H79.5C78.837 407 78.2011 406.737 77.7323 406.268C77.2634 405.799 77 405.163 77 404.5V375.5C77 374.837 77.2634 374.201 77.7323 373.732C78.2011 373.263 78.837 373 79.5 373H90V407ZM115.5 422C116.163 422 116.799 422.263 117.268 422.732C117.737 423.201 118 423.837 118 424.5V453.5C118 454.163 117.737 454.799 117.268 455.268C116.799 455.737 116.163 456 115.5 456H105V422H115.5ZM374.83 406.72C373.652 405.119 371.886 404.051 369.921 403.751C367.956 403.451 365.952 403.943 364.35 405.12C332.62 428.595 294.17 441.219 254.7 441.12H253.84V413.41C253.844 411.921 253.405 410.464 252.579 409.225C251.752 407.985 250.576 407.02 249.2 406.451C247.824 405.882 246.309 405.734 244.849 406.028C243.389 406.322 242.049 407.043 241 408.1L209.9 439.24C209.203 439.936 208.651 440.762 208.274 441.671C207.897 442.581 207.702 443.556 207.702 444.54C207.702 445.525 207.897 446.499 208.274 447.409C208.651 448.318 209.203 449.144 209.9 449.84L241 481C242.048 482.051 243.385 482.767 244.841 483.058C246.296 483.349 247.806 483.201 249.177 482.634C250.549 482.066 251.721 481.104 252.546 479.87C253.371 478.636 253.811 477.184 253.81 475.7V456.1H254.67C297.348 456.219 338.927 442.578 373.24 417.2C374.034 416.618 374.706 415.884 375.216 415.041C375.725 414.199 376.064 413.264 376.212 412.29C376.36 411.317 376.314 410.323 376.076 409.367C375.839 408.411 375.416 407.512 374.83 406.72V406.72ZM238.83 457.56L225.83 444.56L238.83 431.56V457.56ZM60.64 299.4C60.8528 300.362 61.2529 301.273 61.8176 302.08C62.3822 302.887 63.1004 303.575 63.931 304.105C64.7616 304.635 65.6885 304.996 66.6586 305.167C67.6287 305.339 68.6231 305.318 69.585 305.105C70.547 304.892 71.4576 304.492 72.2649 303.927C73.0722 303.363 73.7604 302.645 74.2901 301.814C74.8199 300.983 75.1808 300.057 75.3524 299.086C75.524 298.116 75.5028 297.122 75.29 296.16C69.1087 268.219 69.477 239.227 76.366 211.452C83.2551 183.677 96.478 157.874 115 136.06L129.71 152.68C130.416 153.473 131.282 154.107 132.25 154.542C133.219 154.976 134.268 155.2 135.33 155.2C136.161 155.202 136.986 155.064 137.77 154.79C139.174 154.309 140.403 153.423 141.302 152.242C142.201 151.062 142.73 149.641 142.82 148.16L145.49 104.21C145.611 102.23 144.942 100.283 143.63 98.7944C142.318 97.3063 140.47 96.3986 138.49 96.27L94.56 93.6C93.08 93.5124 91.6072 93.8648 90.3272 94.6128C89.0472 95.3609 88.0172 96.471 87.367 97.8035C86.7168 99.1359 86.4756 100.631 86.6736 102.1C86.8717 103.57 87.5003 104.947 88.48 106.06L105 124.73C73.2877 161.102 55.8487 207.745 55.92 256C55.9162 270.595 57.4988 285.147 60.64 299.4V299.4ZM130.1 110.79L129 129.17L121.24 120.41C120.948 119.986 120.613 119.594 120.24 119.24H120.17L111.75 109.72L130.1 110.79Z" fill="#272A33"/>
</g>
<defs>
<clipPath id="clip0_6_14">
<rect width="512" height="512" fill="white"/>
</clipPath>
</defs>
</svg>
