<svg width="446" height="492" viewBox="0 0 446 492" fill="none" xmlns="http://www.w3.org/2000/svg">
<path fill-rule="evenodd" clip-rule="evenodd" d="M68.6927 283.446H375.482V490.193H68.6927V283.446Z" stroke="#3D42EC" stroke-width="3.165"/>
<path d="M332.126 0H98.6985C91.3325 0 85.3612 5.97131 85.3612 13.3373V153.391C85.3612 160.757 91.3325 166.729 98.6985 166.729H332.126C339.492 166.729 345.463 160.757 345.463 153.391V13.3373C345.463 5.97131 339.492 0 332.126 0Z" fill="#6FABF6"/>
<path d="M305.452 46.6868H265.433C258.068 46.6868 252.096 52.6581 252.096 60.0241V120.048C252.096 127.414 258.068 133.385 265.433 133.385H305.452C312.818 133.385 318.789 127.414 318.789 120.048V60.0241C318.789 52.6581 312.818 46.6868 305.452 46.6868Z" fill="#3D42EC"/>
<path fill-rule="evenodd" clip-rule="evenodd" d="M442.175 114.359L344.616 3.33746H25.3371C19.1482 3.33914 13.2133 5.7984 8.83713 10.1746C4.46094 14.5508 2.00168 20.4857 2 26.6746V466.849C2 473.039 4.45852 478.976 8.83489 483.353C13.2113 487.731 19.1471 490.191 25.3371 490.193H418.825C425.016 490.193 430.953 487.733 435.331 483.355C439.709 478.978 442.168 473.04 442.168 466.849V114.359H442.175Z" stroke="#3D42EC" stroke-width="3.165"/>
<path d="M72.0239 260.102H372.144C375.682 260.102 379.074 261.507 381.575 264.009C384.077 266.51 385.482 269.902 385.482 273.44V293.446H58.6866V273.44C58.6866 269.902 60.0918 266.51 62.593 264.009C65.0942 261.507 68.4866 260.102 72.0239 260.102V260.102Z" fill="#6FABF6"/>
</svg>
