<svg width="471" height="512" viewBox="0 0 471 512" fill="none" xmlns="http://www.w3.org/2000/svg">
<path d="M345.837 183.901H407.977C412.698 183.902 417.373 182.973 421.736 181.167C426.098 179.361 430.061 176.713 433.4 173.374C436.738 170.036 439.386 166.072 441.193 161.71C442.999 157.348 443.928 152.672 443.927 147.951C443.935 139.828 441.732 131.855 437.553 124.889C433.374 117.923 427.376 112.227 420.205 108.412L402.968 99.225C402.972 99.03 402.988 98.836 402.988 98.641V90.595C408.374 86.5536 412.746 81.3138 415.758 75.2904C418.769 69.2669 420.337 62.6252 420.338 55.891V43.431C420.338 31.9124 415.762 20.8655 407.617 12.7206C399.472 4.57575 388.425 0 376.907 0C365.388 0 354.341 4.57575 346.196 12.7206C338.051 20.8655 333.476 31.9124 333.476 43.431V55.891C333.478 62.7584 335.109 69.5272 338.237 75.641C341.365 81.7548 345.899 87.0389 351.467 91.059V98.641C351.467 98.727 351.474 98.811 351.475 98.897L333.61 108.412C326.444 112.235 320.451 117.933 316.273 124.897C312.094 131.861 309.887 139.83 309.887 147.952C309.897 157.483 313.688 166.621 320.428 173.361C327.167 180.1 336.305 183.891 345.837 183.902V183.901ZM348.476 55.891V43.431C348.477 36.0598 351.341 28.9774 356.465 23.6778C361.588 18.3782 368.57 15.2759 375.936 15.0254C383.303 14.7749 390.48 17.3958 395.951 22.3351C401.423 27.2744 404.762 34.1459 405.264 41.5C398.059 43.4692 390.471 43.5611 383.222 41.767C379.152 40.7256 375.26 39.0836 371.675 36.895C370.833 36.3724 369.896 36.0218 368.918 35.8634C367.94 35.705 366.94 35.7419 365.976 35.9721C365.013 36.2022 364.104 36.621 363.303 37.2043C362.503 37.7875 361.825 38.5237 361.31 39.3702C360.796 40.2168 360.454 41.1569 360.304 42.1364C360.155 43.1158 360.201 44.1151 360.44 45.0766C360.679 46.0381 361.107 46.9427 361.697 47.7381C362.288 48.5336 363.03 49.2041 363.882 49.711C368.739 52.6736 374.012 54.8956 379.525 56.304C384.114 57.4721 388.832 58.0617 393.569 58.059C397.512 58.0514 401.446 57.6545 405.312 56.874C405.047 64.3186 401.87 71.3617 396.465 76.4881C391.06 81.6145 383.859 84.4145 376.411 84.2857C368.963 84.1569 361.863 81.1095 356.638 75.7993C351.414 70.4891 348.483 63.3403 348.476 55.891V55.891ZM387.987 97.884V98.641C387.987 101.495 386.853 104.232 384.835 106.249C382.817 108.267 380.08 109.401 377.227 109.401C374.373 109.401 371.636 108.267 369.618 106.249C367.6 104.232 366.467 101.495 366.467 98.641V98.045C373.539 99.8005 380.941 99.7455 387.987 97.885V97.884ZM329.14 132.607C331.915 127.977 335.899 124.19 340.663 121.651L356.131 113.411C358.488 116.784 361.62 119.543 365.264 121.455C368.908 123.367 372.958 124.378 377.073 124.401C381.189 124.425 385.25 123.461 388.915 121.59C392.581 119.72 395.745 116.997 398.141 113.651L413.148 121.649C417.918 124.187 421.907 127.976 424.687 132.61C427.467 137.244 428.933 142.547 428.927 147.951C428.928 150.703 428.387 153.427 427.334 155.97C426.282 158.512 424.739 160.822 422.793 162.768C420.847 164.713 418.537 166.256 415.995 167.309C413.453 168.361 410.728 168.902 407.977 168.901H345.837C340.282 168.895 334.957 166.685 331.03 162.758C327.102 158.83 324.893 153.505 324.887 147.951C324.888 142.545 326.358 137.242 329.14 132.607ZM32.7695 332.847C32.8845 332.91 32.9965 332.978 33.1165 333.037C33.1925 333.073 33.2705 333.097 33.3465 333.131C33.6337 333.258 33.9287 333.366 34.2295 333.456C34.3475 333.492 34.4655 333.529 34.5845 333.558C34.7825 333.608 34.9805 333.643 35.1795 333.675C35.2765 333.691 35.3735 333.712 35.4705 333.724C35.7681 333.761 36.0677 333.781 36.3675 333.782C36.4055 333.782 36.4435 333.775 36.4815 333.774C36.7775 333.771 37.073 333.75 37.3665 333.712C37.4885 333.696 37.6065 333.664 37.7275 333.642C37.9365 333.603 38.1445 333.566 38.3485 333.51C38.4785 333.475 38.6035 333.426 38.7315 333.383C38.9215 333.32 39.1115 333.258 39.2965 333.18C39.4245 333.126 39.5465 333.06 39.6725 332.999C39.8485 332.913 40.0225 332.827 40.1925 332.727C40.3165 332.653 40.4355 332.57 40.5565 332.489C40.7135 332.383 40.8705 332.275 41.0205 332.156C41.1405 332.061 41.2545 331.959 41.3685 331.856C41.5055 331.734 41.6405 331.609 41.7685 331.475C41.8809 331.357 41.9892 331.236 42.0935 331.111C42.3192 330.844 42.5257 330.561 42.7115 330.264C42.7605 330.186 42.8175 330.116 42.8645 330.036C42.9335 329.916 42.9895 329.794 43.0505 329.673C43.0745 329.625 43.1065 329.584 43.1295 329.536L57.5895 299.536C58.4531 297.744 58.5694 295.682 57.9129 293.805C57.2565 291.927 55.881 290.387 54.089 289.523C53.2018 289.096 52.239 288.847 51.2556 288.792C50.2722 288.736 49.2876 288.875 48.3578 289.2C46.4801 289.857 44.9401 291.232 44.0765 293.024L37.5065 306.653C32.4905 287.515 30.3245 267.743 31.0785 247.973C33.0875 194.43 56.0845 144.633 95.8355 107.757C135.586 70.881 186.969 51.686 240.509 53.687C261.095 54.4555 281.443 58.3722 300.844 65.301C302.717 65.9697 304.779 65.8669 306.577 65.0151C308.374 64.1633 309.76 62.6324 310.429 60.759C311.097 58.8856 310.994 56.8234 310.143 55.0258C309.291 53.2283 307.76 51.8427 305.887 51.174C285.045 43.7303 263.187 39.5225 241.072 38.697C183.521 36.533 128.322 57.158 85.6335 96.759C42.9455 136.36 18.2475 189.863 16.0895 247.409C15.2902 268.415 17.5598 289.426 22.8265 309.777L11.3025 303.11C10.4497 302.608 9.50603 302.28 8.5259 302.145C7.54576 302.01 6.54852 302.07 5.59165 302.321C4.63478 302.573 3.73718 303.012 2.95056 303.612C2.16394 304.212 1.50386 304.962 1.00833 305.818C0.512809 306.675 0.191641 307.621 0.0633309 308.602C-0.0649794 309.583 0.00210485 310.58 0.260719 311.535C0.519332 312.49 0.964364 313.384 1.57017 314.167C2.17599 314.949 2.9306 315.604 3.79055 316.093L32.6165 332.771C32.6665 332.8 32.7195 332.818 32.7695 332.846V332.847ZM339.726 256.001C339.725 234.878 333.462 214.23 321.726 196.667C309.991 179.104 293.311 165.416 273.796 157.332C254.281 149.249 232.807 147.134 212.09 151.255C191.374 155.376 172.344 165.548 157.408 180.484C142.472 195.42 132.3 214.45 128.18 235.167C124.059 255.884 126.174 277.358 134.257 296.872C142.341 316.387 156.029 333.067 173.592 344.802C191.155 356.537 211.804 362.801 232.927 362.801C261.242 362.769 288.388 351.507 308.41 331.485C328.432 311.463 339.694 284.316 339.726 256.001V256.001ZM141.127 256.001C141.127 237.845 146.511 220.097 156.598 205.001C166.685 189.904 181.022 178.139 197.796 171.191C214.57 164.243 233.028 162.425 250.835 165.967C268.642 169.509 284.999 178.252 297.837 191.09C310.676 203.929 319.418 220.285 322.961 238.093C326.503 255.9 324.685 274.357 317.737 291.132C310.789 307.906 299.023 322.243 283.927 332.33C268.831 342.417 251.083 347.801 232.927 347.801C208.588 347.773 185.255 338.093 168.045 320.883C150.835 303.673 141.155 280.339 141.128 256.001H141.127ZM467.183 219.656L440.673 199.5C440.598 199.444 440.52 199.397 440.443 199.344C440.365 199.289 440.293 199.228 440.211 199.176C440.183 199.158 440.154 199.144 440.127 199.127C440.007 199.051 439.885 198.984 439.762 198.917C439.665 198.862 439.568 198.806 439.469 198.757C439.343 198.693 439.214 198.639 439.085 198.583C438.985 198.54 438.885 198.495 438.782 198.456C438.657 198.408 438.529 198.369 438.402 198.329C438.293 198.294 438.185 198.257 438.076 198.228C437.954 198.195 437.831 198.171 437.708 198.144C437.592 198.119 437.475 198.092 437.358 198.073C437.24 198.053 437.121 198.042 437.002 198.028C436.88 198.014 436.758 197.998 436.636 197.99C436.518 197.982 436.4 197.982 436.282 197.98C436.16 197.977 436.038 197.973 435.916 197.976C435.796 197.98 435.676 197.991 435.556 198.001C435.437 198.01 435.319 198.017 435.201 198.031C435.077 198.048 434.954 198.071 434.831 198.093C434.719 198.113 434.607 198.13 434.496 198.155C434.37 198.183 434.246 198.219 434.121 198.254C434.015 198.284 433.908 198.31 433.804 198.344C433.679 198.385 433.557 198.434 433.434 198.481C433.333 198.521 433.23 198.557 433.129 198.601C433.011 198.653 432.896 198.712 432.779 198.77C432.679 198.82 432.576 198.87 432.476 198.925C432.369 198.985 432.266 199.052 432.161 199.117C432.057 199.182 431.953 199.245 431.852 199.315C431.758 199.38 431.667 199.453 431.575 199.523C431.47 199.603 431.365 199.683 431.264 199.77C431.181 199.84 431.103 199.917 431.024 199.991C430.92 200.088 430.817 200.184 430.718 200.287C430.644 200.365 430.573 200.448 430.502 200.53C430.407 200.638 430.312 200.745 430.224 200.86C430.204 200.885 430.183 200.906 430.164 200.931C430.107 201.006 430.061 201.084 430.007 201.16C429.952 201.238 429.892 201.312 429.839 201.393L411.736 229.346C411.195 230.173 410.823 231.098 410.641 232.069C410.459 233.039 410.471 234.036 410.675 235.003C410.88 235.969 411.273 236.885 411.833 237.699C412.392 238.513 413.107 239.208 413.936 239.745C414.765 240.282 415.692 240.65 416.663 240.828C417.635 241.005 418.632 240.99 419.597 240.781C420.562 240.572 421.477 240.175 422.289 239.612C423.1 239.049 423.792 238.331 424.326 237.5L432.501 224.877C433.865 233.591 434.658 242.385 434.875 251.203C436.159 304.769 416.264 355.883 378.853 395.133C341.443 434.381 291.34 456.703 237.774 457.986C219.487 458.427 201.226 456.38 183.492 451.901C181.57 451.434 179.541 451.745 177.848 452.766C176.154 453.787 174.932 455.435 174.448 457.353C173.964 459.27 174.257 461.301 175.263 463.004C176.269 464.707 177.906 465.943 179.82 466.444C197.184 470.827 215.024 473.044 232.933 473.044C234.666 473.044 236.399 473.024 238.133 472.983C295.705 471.603 349.536 447.63 389.711 405.482C429.886 363.334 451.251 308.415 449.871 250.844C449.643 241.688 448.837 232.556 447.458 223.502L458.105 231.597C459.69 232.775 461.676 233.281 463.631 233.004C465.587 232.727 467.354 231.689 468.549 230.117C469.745 228.545 470.272 226.565 470.016 224.606C469.76 222.648 468.742 220.869 467.183 219.657V219.656ZM132.243 436.512L115.007 427.325C115.011 427.13 115.027 426.936 115.027 426.741V418.694C120.413 414.653 124.785 409.413 127.797 403.389C130.808 397.366 132.376 390.724 132.377 383.99V371.53C132.377 360.012 127.801 348.965 119.656 340.82C111.511 332.675 100.465 328.1 88.946 328.1C77.4276 328.1 66.3808 332.675 58.236 340.82C50.0912 348.965 45.5155 360.012 45.5155 371.53V383.99C45.5175 390.857 47.1493 397.626 50.2768 403.739C53.4043 409.853 57.9381 415.137 63.5055 419.157V426.741C63.5055 426.827 63.5125 426.911 63.5135 426.997L45.6435 436.515C38.4792 440.338 32.4882 446.036 28.3109 452.999C24.1335 459.963 21.9268 467.931 21.9265 476.051C21.9371 485.582 25.7281 494.72 32.4678 501.46C39.2074 508.199 48.3453 511.99 57.8765 512.001H120.017C124.738 512.002 129.413 511.073 133.776 509.267C138.138 507.461 142.101 504.813 145.44 501.474C148.778 498.136 151.427 494.172 153.233 489.81C155.039 485.448 155.968 480.772 155.967 476.051C155.977 467.927 153.775 459.954 149.595 452.988C145.416 446.022 139.417 440.326 132.245 436.512H132.243ZM60.5165 383.991V371.531C60.5176 364.16 63.3819 357.077 68.5051 351.777C73.6284 346.478 80.61 343.375 87.977 343.124C95.344 342.874 102.52 345.495 107.992 350.434C113.464 355.373 116.803 362.245 117.305 369.599C110.101 371.568 102.513 371.66 95.2635 369.867C91.1935 368.825 87.3014 367.183 83.7155 364.994C82.874 364.482 81.9398 364.141 80.9665 363.991C79.9931 363.84 78.9996 363.882 78.0426 364.115C77.0857 364.349 76.184 364.768 75.3892 365.35C74.5943 365.931 73.9218 366.664 73.41 367.505C72.8983 368.347 72.5573 369.281 72.4065 370.255C72.2558 371.228 72.2982 372.221 72.5315 373.178C72.7647 374.135 73.1841 375.037 73.7658 375.832C74.3474 376.627 75.08 377.299 75.9215 377.811C84.8599 383.275 95.1342 386.164 105.611 386.158C109.554 386.151 113.487 385.754 117.353 384.974C117.088 392.419 113.911 399.462 108.506 404.588C103.101 409.715 95.9001 412.515 88.452 412.386C81.0038 412.257 73.9037 409.21 68.6794 403.899C63.4551 398.589 60.5239 391.44 60.5165 383.991V383.991ZM100.027 425.984V426.742C100.027 429.596 98.8929 432.333 96.875 434.35C94.8571 436.368 92.1203 437.502 89.2665 437.502C86.4128 437.502 83.676 436.368 81.6581 434.35C79.6402 432.333 78.5065 429.596 78.5065 426.742V426.144C85.5794 427.9 92.9806 427.844 100.027 425.984ZM134.834 490.869C132.892 492.82 130.583 494.367 128.039 495.419C125.496 496.472 122.769 497.009 120.017 497.001H57.8765C52.3222 496.995 46.9972 494.785 43.0697 490.858C39.1422 486.93 36.9329 481.605 36.9265 476.051C36.9272 470.649 38.3952 465.349 41.1738 460.717C43.9524 456.085 47.9372 452.295 52.7025 449.751L68.1725 441.511C70.53 444.884 73.6621 447.642 77.306 449.555C80.9499 451.467 84.9993 452.477 89.1144 452.501C93.2295 452.524 97.2903 451.56 100.956 449.69C104.621 447.819 107.785 445.097 110.181 441.751L125.19 449.75C129.96 452.287 133.95 456.076 136.73 460.71C139.509 465.344 140.974 470.647 140.967 476.051C140.975 478.804 140.437 481.53 139.384 484.074C138.331 486.617 136.785 488.926 134.834 490.868V490.869ZM245.427 320.38C246.895 320.38 248.331 319.948 249.557 319.139C250.782 318.33 251.743 317.179 252.321 315.829C252.898 314.479 253.066 312.988 252.805 311.543C252.543 310.098 251.863 308.762 250.849 307.7L222.349 277.86C229.667 276.47 236.408 272.937 241.716 267.71C247.024 262.483 250.66 255.797 252.163 248.501H260.426C262.415 248.501 264.322 247.711 265.729 246.304C267.135 244.898 267.926 242.99 267.926 241.001C267.926 239.012 267.135 237.104 265.729 235.698C264.322 234.291 262.415 233.501 260.426 233.501H252.171C251.059 228.06 248.748 222.936 245.406 218.501H260.426C262.415 218.501 264.322 217.711 265.729 216.304C267.135 214.898 267.926 212.99 267.926 211.001C267.926 209.012 267.135 207.104 265.729 205.698C264.322 204.291 262.415 203.501 260.426 203.501H205.426C203.436 203.501 201.529 204.291 200.122 205.698C198.716 207.104 197.926 209.012 197.926 211.001C197.926 212.99 198.716 214.898 200.122 216.304C201.529 217.711 203.436 218.501 205.426 218.501H215.426C220.077 218.507 224.612 219.952 228.41 222.637C232.207 225.323 235.08 229.118 236.636 233.501H205.427C203.437 233.501 201.53 234.291 200.123 235.698C198.717 237.104 197.927 239.012 197.927 241.001C197.927 242.99 198.717 244.898 200.123 246.304C201.53 247.711 203.437 248.501 205.427 248.501H236.637C235.081 252.884 232.208 256.679 228.41 259.365C224.613 262.05 220.078 263.495 215.427 263.501H205.427C203.958 263.501 202.522 263.933 201.296 264.741C200.07 265.55 199.109 266.701 198.532 268.052C197.954 269.402 197.786 270.892 198.047 272.337C198.309 273.782 198.989 275.119 200.004 276.181L240.004 318.061C240.703 318.795 241.545 319.38 242.477 319.779C243.41 320.177 244.413 320.382 245.428 320.381L245.427 320.38Z" fill="white"/>
</svg>
