<svg width="512" height="512" viewBox="0 0 512 512" fill="none" xmlns="http://www.w3.org/2000/svg">
<g clip-path="url(#clip0_8_2)">
<path d="M295.2 443.67C295.205 443.59 295.205 443.51 295.2 443.43C295.2 443.27 295.2 443.1 295.2 442.95C295.205 442.853 295.205 442.757 295.2 442.66C295.18 442.495 295.15 442.331 295.11 442.17L295.05 441.91C295 441.75 294.96 441.58 294.9 441.42L294.81 441.18C294.75 441.02 294.69 440.86 294.62 440.71L294.5 440.46L294.27 440.03L294.12 439.79C294.03 439.65 293.94 439.53 293.85 439.4L293.67 439.16C293.57 439.03 293.47 438.92 293.36 438.8C293.25 438.68 293.23 438.65 293.17 438.58C293.11 438.51 292.9 438.33 292.76 438.21L292.63 438.08L263.93 413.93C262.408 412.649 260.439 412.025 258.457 412.196C256.474 412.367 254.641 413.318 253.36 414.84C252.079 416.362 251.455 418.331 251.626 420.313C251.797 422.296 252.748 424.129 254.27 425.41L267.27 436.41H134.3C132.311 436.41 130.403 435.62 128.997 434.213C127.59 432.807 126.8 430.899 126.8 428.91V399.21C126.8 397.221 126.01 395.313 124.603 393.907C123.197 392.5 121.289 391.71 119.3 391.71C117.311 391.71 115.403 392.5 113.997 393.907C112.59 395.313 111.8 397.221 111.8 399.21V428.91C111.805 434.876 114.178 440.596 118.396 444.814C122.614 449.032 128.334 451.405 134.3 451.41H268.36L254.1 464.41C252.631 465.752 251.755 467.623 251.665 469.611C251.575 471.598 252.278 473.541 253.62 475.01C254.962 476.479 256.833 477.355 258.821 477.445C260.808 477.535 262.751 476.832 264.22 475.49L292.76 449.43C292.798 449.398 292.832 449.361 292.86 449.32L293.19 449C293.26 448.92 293.33 448.85 293.39 448.77C293.45 448.69 293.59 448.52 293.69 448.39C293.752 448.321 293.809 448.248 293.86 448.17L294.15 447.71C294.19 447.652 294.227 447.592 294.26 447.53C294.635 446.848 294.905 446.113 295.06 445.35C295.06 445.35 295.06 445.25 295.06 445.2C295.1 444.998 295.13 444.795 295.15 444.59C295.155 444.493 295.155 444.397 295.15 444.3C295.15 444.17 295.15 444.03 295.15 443.89V443.74L295.2 443.67ZM408.05 263H363.05C361.061 263 359.153 263.79 357.747 265.197C356.34 266.603 355.55 268.511 355.55 270.5C355.55 272.489 356.34 274.397 357.747 275.803C359.153 277.21 361.061 278 363.05 278H408.05C410.039 278 411.947 277.21 413.353 275.803C414.76 274.397 415.55 272.489 415.55 270.5C415.55 268.511 414.76 266.603 413.353 265.197C411.947 263.79 410.039 263 408.05 263ZM216.8 69.39C216.795 69.4699 216.795 69.5501 216.8 69.63V70.11C216.812 70.2074 216.828 70.3042 216.85 70.4C216.87 70.565 216.9 70.7286 216.94 70.89L217 71.15C217 71.31 217.09 71.48 217.15 71.64L217.24 71.88C217.3 72.04 217.36 72.2 217.43 72.35L217.55 72.6C217.62 72.74 217.7 72.88 217.78 73.02L217.93 73.27L218.2 73.66L218.38 73.9L218.69 74.26L218.89 74.47C219.01 74.6 219.15 74.73 219.28 74.85L219.42 74.97H219.48L248.18 99.13C249.702 100.411 251.671 101.035 253.653 100.864C255.636 100.693 257.469 99.7423 258.75 98.22C260.031 96.6977 260.655 94.7288 260.484 92.7465C260.313 90.7643 259.362 88.931 257.84 87.65L244.84 76.65H377.7C379.689 76.65 381.597 77.4402 383.003 78.8467C384.41 80.2532 385.2 82.1609 385.2 84.15V113.84C385.2 115.829 385.99 117.737 387.397 119.143C388.803 120.55 390.711 121.34 392.7 121.34C394.689 121.34 396.597 120.55 398.003 119.143C399.41 117.737 400.2 115.829 400.2 113.84V84.24C400.195 78.2742 397.822 72.5544 393.604 68.3359C389.386 64.1175 383.666 61.7453 377.7 61.74H243.64L257.9 48.74C258.628 48.0755 259.217 47.2742 259.635 46.3819C260.053 45.4896 260.291 44.5237 260.335 43.5394C260.38 42.5551 260.23 41.5717 259.895 40.6452C259.559 39.7188 259.044 38.8675 258.38 38.14C257.716 37.4125 256.914 36.823 256.022 36.4051C255.13 35.9872 254.164 35.7492 253.179 35.7047C252.195 35.6601 251.212 35.8098 250.285 36.1453C249.359 36.4808 248.508 36.9955 247.78 37.66L219.24 63.7C219.204 63.7308 219.171 63.7642 219.14 63.8L218.82 64.13C218.745 64.2016 218.674 64.2784 218.61 64.36C218.5 64.48 218.41 64.61 218.31 64.73C218.21 64.85 218.19 64.88 218.14 64.96L217.85 65.42C217.81 65.4777 217.773 65.5378 217.74 65.6C217.62 65.82 217.51 66.04 217.41 66.27C217.2 66.7516 217.042 67.2545 216.94 67.77C216.94 67.77 216.94 67.87 216.94 67.92C216.9 68.1217 216.87 68.3253 216.85 68.53C216.845 68.6266 216.845 68.7234 216.85 68.82C216.85 68.95 216.85 69.09 216.85 69.23V69.38L216.8 69.39ZM116.32 162.77C117.814 162.771 119.275 162.326 120.514 161.491C121.754 160.656 122.716 159.47 123.276 158.085C123.837 156.7 123.972 155.179 123.662 153.717C123.353 152.255 122.614 150.919 121.54 149.88L86.66 116.13H90.41C98.2349 116.111 105.821 113.434 111.925 108.537C118.028 103.641 122.286 96.8149 124 89.18H131.84C133.829 89.18 135.737 88.3898 137.143 86.9833C138.55 85.5768 139.34 83.6691 139.34 81.68C139.34 79.6909 138.55 77.7832 137.143 76.3767C135.737 74.9702 133.829 74.18 131.84 74.18H124C123.051 69.8839 121.286 65.8101 118.8 62.18H131.8C133.789 62.18 135.697 61.3898 137.103 59.9833C138.51 58.5768 139.3 56.6691 139.3 54.68C139.3 52.6909 138.51 50.7832 137.103 49.3767C135.697 47.9702 133.789 47.18 131.8 47.18H68.13C67.1451 47.18 66.1698 47.374 65.2599 47.7509C64.3499 48.1278 63.5231 48.6803 62.8267 49.3767C62.1303 50.0731 61.5778 50.8999 61.2009 51.8099C60.824 52.7198 60.63 53.6951 60.63 54.68C60.63 55.6649 60.824 56.6402 61.2009 57.5501C61.5778 58.4601 62.1303 59.2869 62.8267 59.9833C63.5231 60.6797 64.3499 61.2322 65.2599 61.6091C66.1698 61.986 67.1451 62.18 68.13 62.18H90.41C94.2505 62.1879 98.0028 63.3314 101.195 65.4666C104.387 67.6018 106.877 70.6334 108.35 74.18H68.13C66.1409 74.18 64.2332 74.9702 62.8267 76.3767C61.4202 77.7832 60.63 79.6909 60.63 81.68C60.63 83.6691 61.4202 85.5768 62.8267 86.9833C64.2332 88.3898 66.1409 89.18 68.13 89.18H108.35C106.869 92.7172 104.376 95.7383 101.185 97.8642C97.9931 99.9901 94.2448 101.126 90.41 101.13H68.07H67.61H67.32L66.9 101.2L66.59 101.25C66.4578 101.274 66.3274 101.307 66.2 101.35L65.88 101.43L65.44 101.59L65.2 101.68C65.03 101.75 64.85 101.84 64.68 101.93L64.55 101.99L64.14 102.24L63.92 102.38C63.82 102.44 63.73 102.52 63.63 102.59L63.33 102.82L63.11 103.02L62.78 103.33L62.62 103.51C62.52 103.62 62.42 103.73 62.33 103.85C62.24 103.97 62.19 104.03 62.12 104.12L61.9 104.44C61.83 104.54 61.77 104.65 61.71 104.75C61.6425 104.852 61.5823 104.959 61.53 105.07L61.36 105.4C61.36 105.51 61.26 105.62 61.22 105.73C61.18 105.84 61.13 105.96 61.09 106.08C61.05 106.2 61.01 106.31 60.98 106.43C60.95 106.55 60.91 106.67 60.88 106.79C60.85 106.91 60.83 107.02 60.8 107.14C60.77 107.26 60.8 107.4 60.8 107.53C60.8 107.66 60.8 107.75 60.75 107.86C60.7 107.97 60.75 108.16 60.75 108.31C60.75 108.46 60.75 108.47 60.75 108.55V108.6C60.75 108.76 60.75 108.91 60.75 109.07C60.75 109.23 60.75 109.26 60.75 109.35C60.75 109.44 60.75 109.63 60.82 109.77C60.89 109.91 60.82 109.98 60.82 110.08C60.82 110.18 60.88 110.33 60.91 110.45C60.94 110.57 60.91 110.68 61 110.79C61.09 110.9 61.09 111.05 61.14 111.18C61.19 111.31 61.21 111.38 61.25 111.47C61.29 111.56 61.4 111.79 61.48 111.95L61.56 112.13C61.64 112.26 61.72 112.39 61.81 112.52C61.8507 112.6 61.8975 112.677 61.95 112.75C62.0167 112.855 62.0902 112.955 62.17 113.05C62.2377 113.151 62.3111 113.248 62.39 113.34L62.6 113.57L62.9 113.89L111.1 160.53C112.481 161.929 114.354 162.733 116.32 162.77ZM300.09 221.13H408.09C410.079 221.13 411.987 220.34 413.393 218.933C414.8 217.527 415.59 215.619 415.59 213.63V183.63C415.59 181.641 414.8 179.733 413.393 178.327C411.987 176.92 410.079 176.13 408.09 176.13H300.09C298.101 176.13 296.193 176.92 294.787 178.327C293.38 179.733 292.59 181.641 292.59 183.63V213.63C292.59 215.619 293.38 217.527 294.787 218.933C296.193 220.34 298.101 221.13 300.09 221.13V221.13ZM307.59 191.13H400.59V206.13H307.59V191.13ZM321.68 263H276.68C274.691 263 272.783 263.79 271.377 265.197C269.97 266.603 269.18 268.511 269.18 270.5C269.18 272.489 269.97 274.397 271.377 275.803C272.783 277.21 274.691 278 276.68 278H321.68C323.669 278 325.577 277.21 326.983 275.803C328.39 274.397 329.18 272.489 329.18 270.5C329.18 268.511 328.39 266.603 326.983 265.197C325.577 263.79 323.669 263 321.68 263ZM405 374.5H419C421.122 374.5 423.157 375.343 424.657 376.843C426.157 378.343 427 380.378 427 382.5C427 384.489 427.79 386.397 429.197 387.803C430.603 389.21 432.511 390 434.5 390C436.489 390 438.397 389.21 439.803 387.803C441.21 386.397 442 384.489 442 382.5C442.006 376.569 439.72 370.866 435.621 366.58C431.521 362.294 425.925 359.758 420 359.5V349C420 347.011 419.21 345.103 417.803 343.697C416.397 342.29 414.489 341.5 412.5 341.5C410.511 341.5 408.603 342.29 407.197 343.697C405.79 345.103 405 347.011 405 349V359.5C398.9 359.5 393.05 361.923 388.737 366.237C384.423 370.55 382 376.4 382 382.5V396.5C382 402.6 384.423 408.45 388.737 412.763C393.05 417.077 398.9 419.5 405 419.5H419C421.122 419.5 423.157 420.343 424.657 421.843C426.157 423.343 427 425.378 427 427.5V441.5C427 443.622 426.157 445.657 424.657 447.157C423.157 448.657 421.122 449.5 419 449.5H405C402.878 449.5 400.843 448.657 399.343 447.157C397.843 445.657 397 443.622 397 441.5V440.77C397 438.781 396.21 436.873 394.803 435.467C393.397 434.06 391.489 433.27 389.5 433.27C387.511 433.27 385.603 434.06 384.197 435.467C382.79 436.873 382 438.781 382 440.77V441.5C382 447.6 384.423 453.45 388.737 457.763C393.05 462.077 398.9 464.5 405 464.5V475C405 476.989 405.79 478.897 407.197 480.303C408.603 481.71 410.511 482.5 412.5 482.5C414.489 482.5 416.397 481.71 417.803 480.303C419.21 478.897 420 476.989 420 475V464.47C425.925 464.212 431.521 461.676 435.621 457.39C439.72 453.104 442.006 447.401 442 441.47V427.47C442 421.37 439.577 415.52 435.263 411.207C430.95 406.893 425.1 404.47 419 404.47H405C402.878 404.47 400.843 403.627 399.343 402.127C397.843 400.627 397 398.592 397 396.47V382.47C397.008 380.353 397.854 378.326 399.354 376.833C400.853 375.339 402.883 374.5 405 374.5ZM190.32 278H235.32C237.309 278 239.217 277.21 240.623 275.803C242.03 274.397 242.82 272.489 242.82 270.5C242.82 268.511 242.03 266.603 240.623 265.197C239.217 263.79 237.309 263 235.32 263H190.32C188.331 263 186.423 263.79 185.017 265.197C183.61 266.603 182.82 268.511 182.82 270.5C182.82 272.489 183.61 274.397 185.017 275.803C186.423 277.21 188.331 278 190.32 278ZM482.71 341.29C474.688 333.246 465.355 326.628 455.11 321.72V173.93C455.097 163.988 451.142 154.458 444.112 147.428C437.082 140.398 427.552 136.443 417.61 136.43H193.18C200.241 118.31 201.861 98.5242 197.844 79.497C193.826 60.4698 184.344 43.0281 170.561 29.3097C156.777 15.5913 139.291 6.19216 120.245 2.26439C101.199 -1.66338 81.421 0.0508332 63.3349 7.19693C45.2487 14.343 29.6403 26.6105 18.4227 42.4958C7.20511 58.3811 0.865761 77.1941 0.181623 96.6288C-0.502515 116.064 4.49829 135.276 14.5711 151.91C24.6439 168.545 39.3511 181.88 56.89 190.28V338.07C56.9032 348.012 60.8584 357.542 67.8881 364.572C74.9179 371.602 84.4484 375.557 94.39 375.57H318.82C312.262 392.355 310.361 410.6 313.319 428.377C316.276 446.153 323.983 462.8 335.623 476.557C347.264 490.314 362.405 500.67 379.447 506.53C396.488 512.389 414.797 513.535 432.436 509.845C450.075 506.156 466.389 497.768 479.654 485.57C492.918 473.371 502.64 457.815 507.791 440.546C512.941 423.277 513.33 404.937 508.915 387.465C504.5 369.993 495.446 354.039 482.71 341.29V341.29ZM39.9 160.1C31.856 152.241 25.4515 142.864 21.0574 132.513C16.6633 122.161 14.3669 111.04 14.3014 99.795C14.236 88.5495 16.4026 77.4028 20.6759 67.0007C24.9491 56.5986 31.244 47.1478 39.1959 39.1959C47.1478 31.244 56.5986 24.9491 67.0007 20.6759C77.4028 16.4026 88.5495 14.236 99.795 14.3014C111.04 14.3669 122.161 16.6633 132.513 21.0574C142.864 25.4515 152.241 31.856 160.1 39.9C168.144 47.7587 174.549 57.1355 178.943 67.4872C183.337 77.8388 185.633 88.9595 185.699 100.205C185.764 111.45 183.597 122.597 179.324 132.999C175.051 143.401 168.756 152.852 160.804 160.804C152.852 168.756 143.401 175.051 132.999 179.324C122.597 183.597 111.45 185.764 100.205 185.699C88.9595 185.633 77.8388 183.337 67.4872 178.943C57.1355 174.549 47.7587 168.144 39.9 160.1V160.1ZM154.14 191.1V218.28H111.45V199.28C121.864 198.128 132.03 195.334 141.57 191C142.025 191.084 142.487 191.127 142.95 191.13L154.14 191.1ZM94.39 360.57C88.4251 360.562 82.7067 358.189 78.4889 353.971C74.271 349.753 71.8979 344.035 71.89 338.07V196C79.8821 198.321 88.1323 199.638 96.45 199.92V225.8C96.45 227.789 97.2402 229.697 98.6467 231.103C100.053 232.51 101.961 233.3 103.95 233.3H161.64C163.629 233.3 165.537 232.51 166.943 231.103C168.35 229.697 169.14 227.789 169.14 225.8V183.63C169.137 182.106 168.669 180.62 167.798 179.369C166.928 178.119 165.697 177.163 164.27 176.63C166.48 174.76 168.64 172.79 170.71 170.72C176.508 164.933 181.576 158.458 185.8 151.44H417.61C423.575 151.448 429.293 153.821 433.511 158.039C437.729 162.257 440.102 167.975 440.11 173.94V316C432.134 313.684 423.901 312.367 415.6 312.08C415.289 308.351 414.099 304.749 412.128 301.569C410.157 298.389 407.46 295.721 404.259 293.783C401.058 291.846 397.444 290.694 393.712 290.422C389.981 290.151 386.238 290.767 382.79 292.22C379.886 290.99 376.764 290.358 373.61 290.36C369.084 290.386 364.659 291.699 360.851 294.146C357.043 296.592 354.01 300.071 352.105 304.177C350.2 308.283 349.502 312.845 350.092 317.333C350.683 321.82 352.538 326.047 355.44 329.52C343.596 337.677 333.628 348.266 326.2 360.58L94.39 360.57ZM400.56 312.65C389.613 313.877 378.947 316.918 369 321.65C367.39 320.631 366.152 319.12 365.47 317.34C364.789 315.561 364.701 313.608 365.219 311.775C365.737 309.941 366.834 308.324 368.346 307.164C369.858 306.005 371.705 305.365 373.61 305.34C375.369 305.337 377.087 305.874 378.53 306.88C379.782 307.749 381.271 308.215 382.795 308.215C384.32 308.215 385.808 307.749 387.06 306.88C388.503 305.873 390.221 305.336 391.98 305.34C394.042 305.354 396.032 306.095 397.602 307.432C399.171 308.769 400.219 310.617 400.56 312.65V312.65ZM472.1 472.1C458.194 486.005 439.896 494.657 420.325 496.583C400.755 498.509 381.122 493.59 364.771 482.663C348.421 471.737 336.365 455.479 330.658 436.66C324.951 417.841 325.946 397.625 333.473 379.457C341 361.29 354.594 346.294 371.938 337.025C389.282 327.756 409.303 324.788 428.59 328.627C447.877 332.465 465.237 342.872 477.711 358.074C490.185 373.277 497.002 392.335 497 412C497.031 423.167 494.847 434.229 490.572 444.545C486.298 454.862 480.019 464.227 472.1 472.1V472.1ZM104 278H149C150.989 278 152.897 277.21 154.303 275.803C155.71 274.397 156.5 272.489 156.5 270.5C156.5 268.511 155.71 266.603 154.303 265.197C152.897 263.79 150.989 263 149 263H104C102.011 263 100.103 263.79 98.6967 265.197C97.2902 266.603 96.5 268.511 96.5 270.5C96.5 272.489 97.2902 274.397 98.6967 275.803C100.103 277.21 102.011 278 104 278V278ZM194 323H104C102.011 323 100.103 323.79 98.6967 325.197C97.2902 326.603 96.5 328.511 96.5 330.5C96.5 332.489 97.2902 334.397 98.6967 335.803C100.103 337.21 102.011 338 104 338H194C195.989 338 197.897 337.21 199.303 335.803C200.71 334.397 201.5 332.489 201.5 330.5C201.5 328.511 200.71 326.603 199.303 325.197C197.897 323.79 195.989 323 194 323ZM239 293H104C102.011 293 100.103 293.79 98.6967 295.197C97.2902 296.603 96.5 298.511 96.5 300.5C96.5 302.489 97.2902 304.397 98.6967 305.803C100.103 307.21 102.011 308 104 308H239C240.989 308 242.897 307.21 244.303 305.803C245.71 304.397 246.5 302.489 246.5 300.5C246.5 298.511 245.71 296.603 244.303 295.197C242.897 293.79 240.989 293 239 293Z" fill="white"/>
</g>
<defs>
<clipPath id="clip0_8_2">
<rect width="512" height="512" fill="white"/>
</clipPath>
</defs>
</svg>
