<svg width="512" height="512" viewBox="0 0 512 512" fill="none" xmlns="http://www.w3.org/2000/svg">
<path d="M480 104V408.8C479.795 412.903 478.019 416.77 475.04 419.6C472.061 422.43 468.108 424.005 464 424H48C43.8916 424.005 39.9386 422.43 36.96 419.6C33.9814 416.77 32.2054 412.903 32 408.8V104H480Z" fill="#0074FF"/>
<path d="M440 95.2V354.32C439.769 366.599 434.695 378.289 425.885 386.845C417.074 395.401 405.24 400.129 392.96 400H32V96H48V95.2H440Z" fill="#C8D3FF"/>
<path d="M480 48V112H32V48C32 43.7565 33.6857 39.6869 36.6863 36.6863C39.6869 33.6857 43.7565 32 48 32H464C468.243 32 472.313 33.6857 475.314 36.6863C478.314 39.6869 480 43.7565 480 48Z" fill="#0074FF"/>
<path d="M336 88C344.837 88 352 80.8366 352 72C352 63.1634 344.837 56 336 56C327.163 56 320 63.1634 320 72C320 80.8366 327.163 88 336 88Z" fill="#C8D3FF"/>
<path d="M384 88C392.837 88 400 80.8366 400 72C400 63.1634 392.837 56 384 56C375.163 56 368 63.1634 368 72C368 80.8366 375.163 88 384 88Z" fill="#C8D3FF"/>
<path d="M432 88C440.837 88 448 80.8366 448 72C448 63.1634 440.837 56 432 56C423.163 56 416 63.1634 416 72C416 80.8366 423.163 88 432 88Z" fill="#C8D3FF"/>
<path d="M64 72C64 74.1217 64.8429 76.1566 66.3431 77.6569C67.8434 79.1571 69.8783 80 72 80H224C226.122 80 228.157 79.1571 229.657 77.6569C231.157 76.1566 232 74.1217 232 72C232 69.8783 231.157 67.8434 229.657 66.3431C228.157 64.8429 226.122 64 224 64H72C69.8783 64 67.8434 64.8429 66.3431 66.3431C64.8429 67.8434 64 69.8783 64 72Z" fill="#C8D3FF"/>
<path d="M376 362C376 389.032 366.873 415.273 350.097 436.47C333.321 457.667 309.88 472.579 283.57 478.79C257.261 485.001 229.626 482.146 205.141 470.689C180.657 459.232 160.758 439.844 148.669 415.666C136.58 391.487 133.008 363.935 138.533 337.473C144.058 311.012 158.356 287.191 179.11 269.87C199.864 252.549 225.859 242.743 252.882 242.041C279.905 241.338 306.374 249.781 328 266C342.904 277.178 355 291.672 363.331 308.334C371.663 324.997 376 343.371 376 362V362Z" fill="#0074FF"/>
<path d="M213.68 370.32C212.936 369.57 212.052 368.975 211.077 368.569C210.102 368.163 209.056 367.954 208 367.954C206.944 367.954 205.898 368.163 204.923 368.569C203.949 368.975 203.064 369.57 202.32 370.32L200 372.72V360C199.999 345.231 205.834 331.059 216.232 320.571C226.63 310.082 240.751 304.127 255.52 304H288C290.122 304 292.157 303.157 293.657 301.657C295.157 300.157 296 298.122 296 296C296 293.878 295.157 291.843 293.657 290.343C292.157 288.843 290.122 288 288 288H255.52C236.508 288.127 218.317 295.768 204.918 309.257C191.519 322.746 184 340.987 184 360V372.48L181.68 370.08C180.934 369.334 180.049 368.742 179.074 368.339C178.099 367.935 177.055 367.727 176 367.727C174.945 367.727 173.901 367.935 172.926 368.339C171.951 368.742 171.066 369.334 170.32 370.08C169.574 370.826 168.982 371.711 168.579 372.686C168.175 373.661 167.967 374.705 167.967 375.76C167.967 376.815 168.175 377.859 168.579 378.834C168.982 379.809 169.574 380.694 170.32 381.44L186.32 397.44C187.004 398.11 187.822 398.628 188.72 398.96C189.725 399.54 190.844 399.895 192 400C193.037 399.976 194.063 399.787 195.04 399.44C196.012 399.005 196.905 398.41 197.68 397.68L213.68 381.68C214.43 380.936 215.025 380.051 215.431 379.077C215.837 378.102 216.046 377.056 216.046 376C216.046 374.944 215.837 373.898 215.431 372.923C215.025 371.949 214.43 371.064 213.68 370.32V370.32ZM341.68 338.32L325.68 322.32C324.996 321.65 324.178 321.132 323.28 320.8C322.271 320.262 321.143 319.987 320 320H319.2C318.519 320.047 317.847 320.182 317.2 320.4H316.4C315.516 320.759 314.703 321.274 314 321.92L298 337.92C296.494 339.426 295.647 341.47 295.647 343.6C295.647 345.73 296.494 347.774 298 349.28C299.506 350.786 301.55 351.633 303.68 351.633C305.81 351.633 307.854 350.786 309.36 349.28L311.68 346.88V360C311.681 374.769 305.847 388.941 295.448 399.429C285.05 409.918 270.929 415.873 256.16 416H224C221.878 416 219.843 416.843 218.343 418.343C216.843 419.843 216 421.878 216 424C216 426.122 216.843 428.157 218.343 429.657C219.843 431.157 221.878 432 224 432H256.56C275.558 431.852 293.728 424.201 307.11 410.715C320.492 397.228 328.001 378.999 328 360V347.28L330.32 349.68C331.064 350.43 331.949 351.025 332.923 351.431C333.898 351.837 334.944 352.046 336 352.046C337.056 352.046 338.102 351.837 339.077 351.431C340.051 351.025 340.936 350.43 341.68 349.68C342.43 348.936 343.025 348.051 343.431 347.077C343.837 346.102 344.046 345.056 344.046 344C344.046 342.944 343.837 341.898 343.431 340.923C343.025 339.949 342.43 339.064 341.68 338.32V338.32Z" fill="#C8D3FF"/>
<path d="M408 40H416C418.122 40 420.157 39.1571 421.657 37.6569C423.157 36.1566 424 34.1217 424 32C424 29.8783 423.157 27.8434 421.657 26.3431C420.157 24.8429 418.122 24 416 24H408C405.878 24 403.843 24.8429 402.343 26.3431C400.843 27.8434 400 29.8783 400 32C400 34.1217 400.843 36.1566 402.343 37.6569C403.843 39.1571 405.878 40 408 40Z" fill="#033C59"/>
<path d="M336 88C344.837 88 352 80.8366 352 72C352 63.1634 344.837 56 336 56C327.163 56 320 63.1634 320 72C320 80.8366 327.163 88 336 88Z" fill="#C8D3FF"/>
<path d="M384 88C392.837 88 400 80.8366 400 72C400 63.1634 392.837 56 384 56C375.163 56 368 63.1634 368 72C368 80.8366 375.163 88 384 88Z" fill="#C8D3FF"/>
<path d="M432 88C440.837 88 448 80.8366 448 72C448 63.1634 440.837 56 432 56C423.163 56 416 63.1634 416 72C416 80.8366 423.163 88 432 88Z" fill="#C8D3FF"/>
<path d="M72 64C69.8783 64 67.8434 64.8429 66.3431 66.3431C64.8429 67.8434 64 69.8783 64 72C64 74.1217 64.8429 76.1566 66.3431 77.6569C67.8434 79.1571 69.8783 80 72 80H224C226.122 80 228.157 79.1571 229.657 77.6569C231.157 76.1566 232 74.1217 232 72C232 69.8783 231.157 67.8434 229.657 66.3431C228.157 64.8429 226.122 64 224 64H72Z" fill="#C8D3FF"/>
</svg>
