<svg width="36" height="35" viewBox="0 0 36 35" fill="none" xmlns="http://www.w3.org/2000/svg">
<path fill-rule="evenodd" clip-rule="evenodd" d="M18 35C27.9414 35 36 27.1652 36 17.5C36 7.83475 27.9414 0 18 0C8.0586 0 0 7.83475 0 17.5C0 27.1652 8.0586 35 18 35ZM23.4 14C23.4 15.3924 22.8311 16.7277 21.8184 17.7123C20.8057 18.6969 19.4322 19.25 18 19.25C16.5678 19.25 15.1943 18.6969 14.1816 17.7123C13.1689 16.7277 12.6 15.3924 12.6 14C12.6 12.6076 13.1689 11.2723 14.1816 10.2877C15.1943 9.30312 16.5678 8.75 18 8.75C19.4322 8.75 20.8057 9.30312 21.8184 10.2877C22.8311 11.2723 23.4 12.6076 23.4 14V14ZM7.2 26.25C8.45642 24.6188 10.0868 23.295 11.9616 22.3836C13.8364 21.4723 15.9039 20.9985 18 21C20.0961 20.9985 22.1636 21.4723 24.0384 22.3836C25.9132 23.295 27.5436 24.6188 28.8 26.25C27.5436 27.8812 25.9132 29.205 24.0384 30.1164C22.1636 31.0278 20.0961 31.5015 18 31.5C15.9039 31.5015 13.8364 31.0278 11.9616 30.1164C10.0868 29.205 8.45642 27.8812 7.2 26.25V26.25Z" fill="white"/>
</svg>
