<svg width="512" height="512" viewBox="0 0 512 512" fill="none" xmlns="http://www.w3.org/2000/svg">
<g clip-path="url(#clip0_6_4)">
<path d="M129.6 216L123.2 209.6L313.6 20.8C313.6 19.2 315.2 19.2 316.8 19.2C328 8 344 8 355.2 19.2C356.8 20.8 356.8 20.8 358.4 22.4L494.4 158.4C507.2 171.2 507.2 190.4 494.4 203.2L478.4 217.6" fill="#37B678"/>
<path d="M163.2 216L326.4 52.8C329.6 54.4 332.8 54.4 336 54.4C339.2 54.4 342.4 52.8 345.6 51.2L460.8 166.4C459.2 169.6 459.2 172.8 459.2 176C459.2 179.2 460.8 182.4 460.8 185.6L433.6 212.8" fill="#00A653"/>
<path d="M340.8 216C340.8 214.4 340.8 212.8 340.8 211.2C340.8 188.8 323.2 171.2 300.8 171.2C278.4 171.2 260.8 188.8 260.8 211.2C260.8 212.8 260.8 214.4 260.8 216" fill="#FDD402"/>
<path d="M40 216H472C489.6 216 504 230.4 504 248V472C504 489.6 489.6 504 472 504H40C22.4 504 8 489.6 8 472V248C8 230.4 22.4 216 40 216Z" fill="#B28966"/>
<path d="M344 312H504V408H344C316.8 408 296 387.2 296 360C296 332.8 316.8 312 344 312Z" fill="#8B6847"/>
<path d="M344 376C352.837 376 360 368.837 360 360C360 351.163 352.837 344 344 344C335.163 344 328 351.163 328 360C328 368.837 335.163 376 344 376Z" fill="white"/>
<path d="M152 456C205.019 456 248 413.019 248 360C248 306.981 205.019 264 152 264C98.9807 264 56 306.981 56 360C56 413.019 98.9807 456 152 456Z" fill="#FDD402"/>
<path d="M155.2 318.4C164.8 318.4 171.2 324.8 171.2 334.4C171.2 339.2 174.4 342.4 179.2 342.4C184 342.4 187.2 339.2 187.2 334.4C187.2 320 177.6 307.2 163.2 304V294.4C163.2 289.6 160 286.4 155.2 286.4C150.4 286.4 147.2 289.6 147.2 294.4V304C129.6 308.8 120 326.4 124.8 342.4C128 356.8 140.8 366.4 155.2 366.4C164.8 366.4 171.2 372.8 171.2 382.4C171.2 392 164.8 398.4 155.2 398.4C145.6 398.4 139.2 392 139.2 382.4C139.2 377.6 136 374.4 131.2 374.4C126.4 374.4 123.2 377.6 123.2 382.4C123.2 396.8 132.8 409.6 147.2 412.8V422.4C147.2 427.2 150.4 430.4 155.2 430.4C160 430.4 163.2 427.2 163.2 422.4V412.8C180.8 408 190.4 390.4 185.6 374.4C182.4 360 169.6 350.4 155.2 350.4C145.6 350.4 139.2 344 139.2 334.4C139.2 324.8 147.2 318.4 155.2 318.4ZM492.8 212.8L499.2 206.4C507.2 198.4 510.4 188.8 510.4 177.6C510.4 166.4 505.6 156.8 499.2 148.8L363.2 12.8C361.6 11.2 361.6 11.2 360 9.6C347.2 -3.2 324.8 -4.8 310.4 9.6C308.8 11.2 307.2 11.2 307.2 12.8L115.2 206.4H40C17.6 206.4 0 224 0 246.4V470.4C0 492.8 17.6 510.4 40 510.4H472C494.4 510.4 512 492.8 512 470.4V246.4C512 233.6 505.6 220.8 492.8 212.8ZM320 25.6C320 25.6 320 24 320 25.6C321.6 24 323.2 22.4 323.2 22.4C331.2 14.4 344 14.4 352 22.4C353.6 22.4 353.6 24 353.6 24L489.6 160C494.4 164.8 496 171.2 496 177.6C496 184 492.8 190.4 489.6 195.2L476.8 208C475.2 208 473.6 208 472 208H454.4L467.2 195.2C470.4 192 470.4 188.8 468.8 185.6C467.2 184 467.2 180.8 467.2 179.2C467.2 176 467.2 174.4 468.8 172.8C470.4 169.6 470.4 166.4 467.2 163.2L352 46.4C348.8 43.2 345.6 43.2 342.4 44.8C337.6 46.4 332.8 46.4 329.6 44.8C326.4 43.2 323.2 44.8 320 46.4L160 206.4H137.6L320 25.6ZM452.8 187.2L432 206.4H348.8C347.2 180.8 324.8 160 297.6 161.6C273.6 163.2 254.4 182.4 252.8 206.4H182.4L328 60.8C332.8 62.4 339.2 62.4 344 60.8L452.8 169.6C452.8 172.8 451.2 174.4 451.2 177.6C451.2 180.8 451.2 184 452.8 187.2ZM332.8 206.4H268.8C270.4 188.8 286.4 176 304 177.6C318.4 179.2 331.2 192 332.8 206.4ZM496 398.4H344C331.2 398.4 320 393.6 312 384C305.6 377.6 304 368 304 358.4C304 356.8 304 355.2 304 353.6C305.6 334.4 320 320 339.2 318.4C340.8 318.4 342.4 318.4 344 318.4H496V398.4ZM496 302.4H344C342.4 302.4 339.2 302.4 337.6 302.4C312 305.6 291.2 326.4 288 352C288 353.6 288 355.2 288 358.4C288 371.2 292.8 384 300.8 393.6C312 406.4 328 414.4 344 414.4H496V470.4C496 483.2 484.8 494.4 472 494.4H40C27.2 494.4 16 483.2 16 470.4V246.4C16 233.6 27.2 222.4 40 222.4H472C473.6 222.4 475.2 222.4 476.8 222.4C488 225.6 494.4 235.2 494.4 246.4V302.4H496ZM320 358.4C320 371.2 331.2 382.4 344 382.4C356.8 382.4 368 371.2 368 358.4C368 345.6 356.8 334.4 344 334.4C331.2 334.4 320 345.6 320 358.4ZM352 358.4C352 363.2 348.8 366.4 344 366.4C339.2 366.4 336 363.2 336 358.4C336 353.6 339.2 350.4 344 350.4C348.8 350.4 352 355.2 352 358.4ZM152 254.4C94.4 254.4 48 300.8 48 358.4C48 416 94.4 462.4 152 462.4C209.6 462.4 256 416 256 358.4C256 302.4 209.6 254.4 152 254.4ZM152 446.4C104 446.4 64 406.4 64 358.4C64 310.4 104 270.4 152 270.4C200 270.4 240 310.4 240 358.4C240 408 200 446.4 152 446.4Z" fill="black"/>
</g>
<defs>
<clipPath id="clip0_6_4">
<rect width="512" height="512" fill="white"/>
</clipPath>
</defs>
</svg>
